<?xml version="1.0" encoding="UTF-8" standalone="no"?>
<!-- Created with Inkscape (http://www.inkscape.org/) -->

<svg
   xmlns:dc="http://purl.org/dc/elements/1.1/"
   xmlns:cc="http://creativecommons.org/ns#"
   xmlns:rdf="http://www.w3.org/1999/02/22-rdf-syntax-ns#"
   xmlns:svg="http://www.w3.org/2000/svg"
   xmlns="http://www.w3.org/2000/svg"
   xmlns:sodipodi="http://sodipodi.sourceforge.net/DTD/sodipodi-0.dtd"
   xmlns:inkscape="http://www.inkscape.org/namespaces/inkscape"
   width="210mm"
   height="297mm"
   viewBox="0 0 210 297"
   version="1.1"
   id="svg8"
   inkscape:version="0.92.3 (2405546, 2018-03-11)"
   sodipodi:docname="microbit_standbeast_body.svg">
  <defs
     id="defs2" />
  <sodipodi:namedview
     id="base"
     pagecolor="#ffffff"
     bordercolor="#666666"
     borderopacity="1.0"
     inkscape:pageopacity="0.0"
     inkscape:pageshadow="2"
     inkscape:zoom="0.4489899"
     inkscape:cx="396.85039"
     inkscape:cy="561.25984"
     inkscape:document-units="mm"
     inkscape:current-layer="layer1"
     showgrid="false"
     inkscape:window-width="1366"
     inkscape:window-height="705"
     inkscape:window-x="-8"
     inkscape:window-y="-8"
     inkscape:window-maximized="1" />
  <metadata
     id="metadata5">
    <rdf:RDF>
      <cc:Work
         rdf:about="">
        <dc:format>image/svg+xml</dc:format>
        <dc:type
           rdf:resource="http://purl.org/dc/dcmitype/StillImage" />
        <dc:title></dc:title>
      </cc:Work>
    </rdf:RDF>
  </metadata>
  <g
     inkscape:label="圖層 1"
     inkscape:groupmode="layer"
     id="layer1">
    <path
       style="opacity:1;fill:none;fill-opacity:1;stroke:#000000;stroke-width:0.14705735;stroke-linejoin:round;stroke-miterlimit:4;stroke-dasharray:none;stroke-dashoffset:0;stroke-opacity:1"
       d="m 16.42681,47.369788 v 0.0057 h -3.360833 v 1.846397 h -1.829032 c -2.65e-4,0.0021 -7.94e-4,0.0042 -0.0011,0.0062 H 7.2509369 v 14.910718 h 3.9580351 c 0.0019,0.0259 0.0016,0.0524 0.0041,0.07803 h 1.850803 v 2.012797 h 3.786063 v -0.0072 h 54.16052 v 0.0036 h 3.989425 v -2.008145 h 2.04174 c 0.002,-0.02347 0.002,-0.04767 0.004,-0.07131 h 3.89917 V 49.220332 h -3.92605 -0.54518 -1.47682 v -1.842265 h -3.242798 v -0.0083 z"
       id="rect4425"
       inkscape:connector-curvature="0"
       sodipodi:nodetypes="ccccccccccccccccccccccccccccc" />
    <rect
       style="fill:none;fill-opacity:1;stroke:#000000;stroke-width:0.17542225;stroke-miterlimit:4;stroke-dasharray:none;stroke-opacity:1"
       id="rect1609"
       width="51.824577"
       height="1.5245777"
       x="18.215252"
       y="62.683842" />
    <path
       style="opacity:1;fill:none;fill-opacity:1;stroke:#000000;stroke-width:0.13548787;stroke-linejoin:round;stroke-miterlimit:4;stroke-dasharray:none;stroke-dashoffset:0;stroke-opacity:1"
       d="m 15.480487,27.363812 c -1.06962,0 -1.9306,0.99736 -1.9306,2.23643 v 2.68716 1.52042 3.49505 3.21999 3.46904 c 0,1.23904 0.86098,2.23643 1.9306,2.23643 h 52.003326 c 1.06962,0 1.9306,-0.99739 1.9306,-2.23643 v -4.70398 -1.98851 -5.01201 -2.68716 c 0,-1.23907 -0.86098,-2.23643 -1.9306,-2.23643 z"
       id="path2801"
       inkscape:connector-curvature="0" />
    <rect
       y="42.684353"
       x="15.570094"
       height="1.5245777"
       width="51.824577"
       id="rect2827"
       style="fill:none;fill-opacity:1;stroke:#000000;stroke-width:0.17542225;stroke-miterlimit:4;stroke-dasharray:none;stroke-opacity:1" />
    <rect
       style="opacity:1;fill:none;fill-opacity:1;stroke:#000000;stroke-width:0.09798727;stroke-linejoin:round;stroke-miterlimit:4;stroke-dasharray:none;stroke-dashoffset:0;stroke-opacity:1"
       id="rect1012"
       width="19.902012"
       height="2.9020128"
       x="18.176971"
       y="49.068562" />
    <rect
       y="29.051088"
       x="15.513663"
       height="2.9369693"
       width="8.1369696"
       id="rect1030"
       style="opacity:1;fill:none;fill-opacity:1;stroke:#000000;stroke-width:0.06303076;stroke-linejoin:round;stroke-miterlimit:4;stroke-dasharray:none;stroke-dashoffset:0;stroke-opacity:1" />
    <path
       style="opacity:1;fill:none;fill-opacity:1;stroke:#000000;stroke-width:0.08168723;stroke-linejoin:round;stroke-miterlimit:4;stroke-dasharray:none;stroke-dashoffset:0;stroke-opacity:1"
       d="m 53.918397,107.83466 h 15.91841 3.00034 V 87.934071 h -3.00034 v 11.98221 h -15.91841 z"
       id="rect1028"
       inkscape:connector-curvature="0" />
    <circle
       transform="matrix(0,1,1,0,0,0)"
       style="fill:none;fill-rule:evenodd;stroke:#000000;stroke-width:0.08800796;stroke-miterlimit:4;stroke-dasharray:none;stroke-opacity:1"
       id="circle1037"
       cx="105.41864"
       cy="57.716473"
       r="0.95599604" />
    <circle
       style="fill:none;fill-rule:evenodd;stroke:#000000;stroke-width:0.08800796;stroke-miterlimit:4;stroke-dasharray:none;stroke-opacity:1"
       id="circle934"
       cx="44.554646"
       cy="50.324574"
       r="0.95599604" />
    <circle
       style="fill:none;fill-rule:evenodd;stroke:#000000;stroke-width:0.08800796;stroke-miterlimit:4;stroke-dasharray:none;stroke-opacity:1"
       id="circle936"
       cx="41.909145"
       cy="30.324572"
       r="0.95599604" />
    <rect
       style="fill:none;stroke:#000000;stroke-width:0.11885758;stroke-miterlimit:4;stroke-dasharray:none;stroke-opacity:1"
       id="rect871"
       width="2.8811424"
       height="11.881143"
       x="72.187401"
       y="50.862995" />
    <rect
       y="50.862995"
       x="13.187407"
       height="11.881143"
       width="2.8811424"
       id="rect873"
       style="fill:none;stroke:#000000;stroke-width:0.11885758;stroke-miterlimit:4;stroke-dasharray:none;stroke-opacity:1" />
    <path
       style="fill:none;stroke:#000000;stroke-width:0.08885758;stroke-miterlimit:4;stroke-dasharray:none;stroke-opacity:1"
       d="m 50.353511,69.970321 v 2.91145 h 3.55327 v 7.74475 h 11.80496 v -7.74475 h 3.55276 v -2.91145 z"
       id="rect887"
       inkscape:connector-curvature="0" />
    <circle
       transform="scale(-1,1)"
       style="fill:none;fill-rule:evenodd;stroke:#000000;stroke-width:0.08800796;stroke-miterlimit:4;stroke-dasharray:none;stroke-opacity:1"
       id="circle1626"
       cx="-59.464375"
       cy="77.586365"
       r="0.95599604" />
    <path
       inkscape:connector-curvature="0"
       id="path1655"
       d="m 50.353511,82.141211 v 2.91147 h 3.55327 v 7.74475 h 11.80496 v -7.74475 h 3.55276 v -2.91147 z"
       style="fill:none;stroke:#000000;stroke-width:0.08885758;stroke-miterlimit:4;stroke-dasharray:none;stroke-opacity:1" />
    <circle
       r="0.95599604"
       cy="89.757187"
       cx="-59.464375"
       id="circle1657"
       style="fill:none;fill-rule:evenodd;stroke:#000000;stroke-width:0.08800796;stroke-miterlimit:4;stroke-dasharray:none;stroke-opacity:1"
       transform="scale(-1,1)" />
    <circle
       r="0.95599604"
       cy="79.600586"
       cx="-79.245728"
       id="circle2282"
       style="fill:none;fill-rule:evenodd;stroke:#000000;stroke-width:0.08800796;stroke-miterlimit:4;stroke-dasharray:none;stroke-opacity:1"
       transform="scale(-1,1)" />
    <rect
       y="77.941666"
       x="73.425064"
       height="4.898952"
       width="11.898952"
       id="rect2284"
       style="fill:none;stroke:#000000;stroke-width:0.10104797;stroke-miterlimit:4;stroke-dasharray:none;stroke-opacity:1" />
    <circle
       transform="scale(-1,1)"
       style="fill:none;fill-rule:evenodd;stroke:#000000;stroke-width:0.08800796;stroke-miterlimit:4;stroke-dasharray:none;stroke-opacity:1"
       id="circle2309"
       cx="-78.90612"
       cy="71.336838"
       r="0.95599604" />
    <rect
       style="fill:none;stroke:#000000;stroke-width:0.10104797;stroke-miterlimit:4;stroke-dasharray:none;stroke-opacity:1"
       id="rect2311"
       width="11.898952"
       height="4.898952"
       x="73.085457"
       y="69.677917" />
    <circle
       r="0.95599604"
       cy="50.324574"
       cx="55.137989"
       id="circle2306"
       style="fill:none;fill-rule:evenodd;stroke:#000000;stroke-width:0.08800796;stroke-miterlimit:4;stroke-dasharray:none;stroke-opacity:1" />
    <circle
       r="0.95599604"
       cy="30.324572"
       cx="52.492489"
       id="circle2308"
       style="fill:none;fill-rule:evenodd;stroke:#000000;stroke-width:0.08800796;stroke-miterlimit:4;stroke-dasharray:none;stroke-opacity:1" />
    <path
       inkscape:connector-curvature="0"
       style="fill:none;fill-opacity:1;stroke:#000000;stroke-width:0.11112169;stroke-miterlimit:4;stroke-dasharray:none;stroke-opacity:1"
       d="m 10.233386,69.39142 c -0.7046751,0 -1.2717571,0.567599 -1.2717571,1.272274 v 9.129677 h 0.389124 c 1.0522091,0 1.8991081,0.8469 1.8991081,1.89911 v 22.886969 c 0,1.05221 -0.846899,1.89963 -1.8991081,1.89963 h -0.389124 v 1.02939 c 0,0.70468 0.567082,1.27176 1.2717571,1.27176 h 16.345255 c 0.704675,0 1.271757,-0.56708 1.271757,-1.27176 v -1.02939 h -0.180351 c -1.052208,0 -1.899108,-0.84742 -1.899108,-1.89963 V 81.692481 c 0,-1.05221 0.8469,-1.89911 1.899108,-1.89911 h 0.180351 v -9.129677 c 0,-0.704675 -0.567082,-1.272274 -1.271757,-1.272274 z"
       id="rect2299" />
    <path
       inkscape:connector-curvature="0"
       style="fill:none;fill-opacity:1;stroke:#000000;stroke-width:0.1;stroke-miterlimit:4;stroke-dasharray:none;stroke-opacity:1"
       d="m 15.154635,80.069131 v 0.0475 H 12.60647 V 102.57314 H 24.484299 V 80.116631 H 21.8457 v -0.0475 z"
       id="path2301" />
    <circle
       r="0.95599604"
       cy="76.876602"
       cx="-18.405998"
       id="circle2303"
       style="fill:none;fill-rule:evenodd;stroke:#000000;stroke-width:0.08800796;stroke-miterlimit:4;stroke-dasharray:none;stroke-opacity:1"
       transform="scale(-1,1)" />
    <rect
       style="fill:none;stroke:#000000;stroke-width:0.08756624;stroke-miterlimit:4;stroke-dasharray:none;stroke-opacity:1"
       id="rect2305"
       width="2.9124341"
       height="14.912434"
       x="72.057732"
       y="-25.862213"
       transform="rotate(90)" />
    <circle
       transform="scale(-1,1)"
       style="fill:none;fill-rule:evenodd;stroke:#000000;stroke-width:0.08800796;stroke-miterlimit:4;stroke-dasharray:none;stroke-opacity:1"
       id="circle2307"
       cx="-18.405998"
       cy="105.9807"
       r="0.95599604" />
    <path
       id="path1587"
       d="m 30.870899,69.391421 c -0.704675,0 -1.271758,0.567599 -1.271757,1.272273 v 9.129677 h 0.389123 c 1.05221,0 1.899109,0.8469 1.899109,1.89911 v 22.886969 c 0,1.05221 -0.846899,1.89963 -1.899109,1.89963 h -0.389123 v 1.02939 c -1e-6,0.70468 0.567082,1.27176 1.271757,1.27176 h 16.345253 c 0.704676,0 1.271757,-0.56708 1.271757,-1.27176 v -1.02939 h -0.180348 c -1.052211,0 -1.89911,-0.84742 -1.89911,-1.89963 V 81.692481 c 0,-1.05221 0.846899,-1.89911 1.89911,-1.89911 h 0.180348 v -9.129677 c 0,-0.704674 -0.567081,-1.272273 -1.271757,-1.272273 z"
       style="fill:none;fill-opacity:1;stroke:#000000;stroke-width:0.11112169;stroke-miterlimit:4;stroke-dasharray:none;stroke-opacity:1"
       inkscape:connector-curvature="0" />
    <path
       id="path1589"
       d="m 35.792148,80.069131 v 0.0475 H 33.243983 V 102.57314 H 45.121811 V 80.116631 h -2.638597 v -0.0475 z"
       style="fill:none;fill-opacity:1;stroke:#000000;stroke-width:0.1;stroke-miterlimit:4;stroke-dasharray:none;stroke-opacity:1"
       inkscape:connector-curvature="0" />
    <circle
       transform="scale(-1,1)"
       style="fill:none;fill-rule:evenodd;stroke:#000000;stroke-width:0.08800796;stroke-miterlimit:4;stroke-dasharray:none;stroke-opacity:1"
       id="circle1591"
       cx="-39.043514"
       cy="76.876602"
       r="0.95599604" />
    <rect
       transform="rotate(90)"
       y="-46.499729"
       x="72.057732"
       height="14.912434"
       width="2.9124341"
       id="rect1593"
       style="fill:none;stroke:#000000;stroke-width:0.08756624;stroke-miterlimit:4;stroke-dasharray:none;stroke-opacity:1" />
    <circle
       r="0.95599604"
       cy="105.9807"
       cx="-39.043514"
       id="circle1595"
       style="fill:none;fill-rule:evenodd;stroke:#000000;stroke-width:0.08800796;stroke-miterlimit:4;stroke-dasharray:none;stroke-opacity:1"
       transform="scale(-1,1)" />
    <path
       inkscape:connector-curvature="0"
       style="fill:none;fill-opacity:1;stroke:#000000;stroke-width:0.12121823;stroke-miterlimit:4;stroke-dasharray:none;stroke-opacity:1"
       d="m 129.21544,64.913766 c -0.83855,0 -1.51412,0.5676 -1.51412,1.272275 v 1.548226 h 0.11885 v 11.410674 c -0.55816,-2.1e-4 -1.12394,0.1425 -1.64021,0.4501 l -33.200547,19.78122 a 8.9386071,9.3386069 0 0 0 -6.76755,9.050099 8.9386071,9.3386069 0 0 0 8.93899,9.33844 8.9386071,9.3386069 0 0 0 2.759,-0.46767 c 0.0866,-0.026 0.17219,-0.0557 0.25735,-0.0894 a 8.9386071,9.3386069 0 0 0 2.506307,-1.44126 l 27.14666,-16.174199 v 0.10593 h -0.11885 v 3.332619 c 0,0.70467 0.67557,1.27176 1.51412,1.27176 h 19.44997 c 0.83855,0 1.51361,-0.56709 1.51361,-1.27176 v -3.572389 l 27.10429,16.148879 a 8.9386071,9.3386069 0 0 0 5.70921,2.15749 8.9386071,9.3386069 0 0 0 8.93847,-9.33844 8.9386071,9.3386069 0 0 0 -6.61148,-9.005139 l -33.27549,-19.82618 c -0.56809,-0.33847 -1.19637,-0.481 -1.80816,-0.44855 v -7.468795 a 20.318644,11.684412 0 0 0 -0.0563,-0.0217 v -5.469951 c 0,-0.704675 -0.67557,-1.272275 -1.51412,-1.272275 z"
       id="rect1675" />
    <circle
       style="fill:none;fill-rule:evenodd;stroke:#000000;stroke-width:0.08800796;stroke-miterlimit:4;stroke-dasharray:none;stroke-opacity:1"
       id="circle1679"
       cx="-138.94226"
       cy="72.398842"
       transform="scale(-1,1)"
       r="0.95599604" />
    <rect
       transform="rotate(90)"
       y="-146.39847"
       x="67.579971"
       height="14.912434"
       width="2.9124341"
       id="rect1681"
       style="fill:none;stroke:#000000;stroke-width:0.08756624;stroke-miterlimit:4;stroke-dasharray:none;stroke-opacity:1" />
    <circle
       cy="101.30251"
       cx="-138.94226"
       id="circle1683"
       style="fill:none;fill-rule:evenodd;stroke:#000000;stroke-width:0.08800796;stroke-miterlimit:4;stroke-dasharray:none;stroke-opacity:1"
       transform="scale(-1,1)"
       r="0.95599604" />
    <path
       id="path1621"
       d="m 96.697123,108.37041 0.005,0.0388 -0.0194,0.21544 -0.003,0.0388 -0.0566,0.20957 -0.011,0.0372 -0.091,0.19628 -0.017,0.0352 -0.0374,0.0528 -0.0864,0.12471 -0.008,0.0111 -0.017,0.0222 -0.15298,0.1531 -0.0271,0.027 -0.17725,0.12457 -0.0322,0.0222 -0.1787,0.0836 -0.017,0.008 -0.0322,0.0157 -0.003,0.002 -0.20873,0.0557 -0.0382,0.0111 -0.21311,0.0172 -0.0382,0.003 h -7.7e-4 -0.002 l -0.2153,-0.0197 -0.0389,-0.003 -0.11197,-0.03 -0.0973,-0.0262 -0.0194,-0.005 -0.017,-0.005 -0.19629,-0.0916 -0.0352,-0.0172 -0.17723,-0.12394 -0.0322,-0.0222 -0.0126,-0.0127 -0.0673,-0.068 -0.0158,-0.0141 -0.0856,-0.085 -0.1238,-0.17736 -0.0221,-0.0322 -0.011,-0.0197 -0.008,-0.0172 -0.0497,-0.10832 -0.0408,-0.088 -0.0566,-0.20881 -0.011,-0.038 -0.017,-0.21543 -0.005,-0.0388 0.0194,-0.21544 0.003,-0.0388 0.0566,-0.20879 0.011,-0.038 0.002,-0.005 0.0126,-0.0285 0.0158,-0.0299 0.0785,-0.16779 0.12396,-0.17734 0.0221,-0.0314 0.13973,-0.14049 0.0126,-0.0127 0.0248,-0.0255 0.002,-0.002 0.17724,-0.12394 0.0322,-0.0222 0.0293,-0.0157 0.16331,-0.0762 0.033,-0.0157 0.005,-0.003 0.20869,-0.0565 0.0382,-0.0111 0.2153,-0.0197 0.0389,-0.003 0.0126,0.002 0.0256,0.002 0.0733,0.005 0.14193,0.0127 0.0246,0.005 0.13263,0.036 0.0158,0.003 0.076,0.0197 0.19627,0.0916 0.0352,0.0172 0.17722,0.12441 0.0322,0.0222 0.15234,0.15311 0.0279,0.0277 0.12428,0.17735 0.0221,0.0314 0.0749,0.16041 0.0126,0.0285 0.003,0.008 0.017,0.0358 0.0565,0.20879 0.011,0.038 z"
       style="fill:none;stroke:#0000ff;stroke-width:0.06459486;stroke-miterlimit:4;stroke-dasharray:none"
       inkscape:connector-curvature="0" />
    <path
       id="path1623"
       d="m 184.38391,108.2894 0.0111,0.11939 -0.0195,0.21539 -0.003,0.0389 -0.0558,0.20949 -0.011,0.0373 -0.052,0.11215 -0.011,0.0197 -0.008,0.0157 -0.0392,0.0844 -0.12398,0.17735 -0.0221,0.0321 -0.0157,0.0157 -0.079,0.0792 -0.0126,0.0127 -0.0741,0.0739 -0.17719,0.12458 -0.032,0.0222 -0.0438,0.0197 -0.14745,0.0688 -0.008,0.003 -0.005,0.002 -0.0267,0.0127 -7.9e-4,8e-4 -0.20894,0.0558 -0.0376,0.0111 -0.12493,0.0111 -0.0221,0.002 -0.017,0.002 -0.0906,0.008 -0.14714,-0.0127 -0.0266,-0.003 -0.0126,-8e-4 -0.0684,-0.005 -0.17596,-0.0477 -0.0317,-0.008 -0.005,-0.002 -0.0331,-0.0111 -0.19596,-0.0917 -0.0354,-0.0172 -0.17718,-0.12397 -0.0319,-0.0222 -0.0858,-0.0857 -0.0673,-0.0674 -0.0157,-0.0157 -0.0126,-0.0127 -0.124,-0.17733 -0.0221,-0.0321 -0.0912,-0.19624 -0.017,-0.0351 -0.056,-0.20875 -0.011,-0.0381 -0.0195,-0.21542 -0.003,-0.0387 0.0195,-0.21538 0.003,-0.0387 0.0559,-0.20878 0.0111,-0.0381 0.0912,-0.19623 0.017,-0.0351 0.12398,-0.17736 0.0221,-0.0315 0.0157,-0.0157 0.15282,-0.15294 0.0126,-0.0127 0.1772,-0.12397 0.0319,-0.0222 0.083,-0.0389 0.11327,-0.0528 0.0157,-0.008 0.0195,-0.0111 0.008,-0.002 0.0392,-0.0111 0.0267,-0.008 0.14824,-0.0395 0.005,-10e-4 0.0221,-0.005 0.0359,-0.003 0.19943,-0.0172 h 0.003 l 0.017,-0.002 0.21554,0.0197 0.0389,0.003 0.0221,0.005 0.1867,0.0499 0.005,7.9e-4 0.0337,0.0111 0.0495,0.0222 0.14635,0.0688 0.011,0.005 0.0263,0.0127 0.022,0.0141 0.0126,0.008 0.11548,0.0806 0.0614,0.0433 0.15282,0.15294 0.0276,0.0279 0.12398,0.1771 0.0221,0.0314 0.003,0.008 0.0195,0.0395 0.0126,0.0279 0.0731,0.15672 0.056,0.20877 0.011,0.0381 0.002,0.0172 0.002,0.0222 z"
       style="fill:none;stroke:#0000ff;stroke-width:0.06457976;stroke-miterlimit:4;stroke-dasharray:none"
       inkscape:connector-curvature="0" />
    <path
       inkscape:connector-curvature="0"
       id="path1625"
       d="m 145.09258,81.723241 a 5.9754902,5.9898481 0 0 0 -5.97562,-5.98943 5.9754902,5.9898481 0 0 0 -5.97506,5.98943 5.9754902,5.9898481 0 0 0 3.01608,5.19911 3.1176471,3.1251382 0 0 0 -0.15496,0.9669 3.1176471,3.1251382 0 0 0 3.11775,3.12524 3.1176471,3.1251382 0 0 0 3.11776,-3.12524 3.1176471,3.1251382 0 0 0 -0.15931,-0.97235 5.9754902,5.9898481 0 0 0 3.01336,-5.19366 z"
       style="opacity:1;fill:none;fill-opacity:1;stroke:#000000;stroke-width:0.14932044;stroke-linejoin:round;stroke-miterlimit:4;stroke-dasharray:none;stroke-dashoffset:0;stroke-opacity:1" />
    <path
       id="path8341"
       d="m 162.28601,95.330411 0.007,0.0758 -0.0124,0.13674 -0.002,0.0247 -0.0354,0.133 -0.007,0.0237 -0.033,0.0712 -0.007,0.0125 -0.005,0.01 -0.0249,0.0536 -0.0787,0.11259 -0.014,0.0204 -0.01,0.01 -0.0502,0.0503 -0.008,0.008 -0.047,0.0469 -0.11247,0.0791 -0.0203,0.0141 -0.0278,0.0125 -0.0936,0.0437 -0.005,0.002 -0.003,7.9e-4 -0.0169,0.008 -5.3e-4,5.3e-4 -0.13263,0.0354 -0.0239,0.007 -0.0793,0.007 -0.014,0.001 -0.0108,0.001 -0.0575,0.005 -0.0934,-0.008 -0.0169,-0.002 -0.008,-5.3e-4 -0.0434,-0.003 -0.1117,-0.0303 -0.0201,-0.005 -0.003,-0.001 -0.021,-0.007 -0.12439,-0.0582 -0.0225,-0.0109 -0.11247,-0.0787 -0.0203,-0.0141 -0.0545,-0.0544 -0.0427,-0.0428 -0.01,-0.01 -0.008,-0.008 -0.0787,-0.11257 -0.014,-0.0204 -0.0579,-0.12459 -0.0108,-0.0223 -0.0356,-0.13253 -0.007,-0.0242 -0.0124,-0.13677 -0.002,-0.0246 0.0124,-0.13674 0.002,-0.0246 0.0355,-0.13255 0.007,-0.0242 0.0579,-0.12458 0.0108,-0.0223 0.0787,-0.1126 0.014,-0.02 0.01,-0.01 0.097,-0.0971 0.008,-0.008 0.11248,-0.0787 0.0203,-0.0141 0.0527,-0.0247 0.0719,-0.0335 0.01,-0.005 0.0124,-0.007 0.005,-10e-4 0.0249,-0.007 0.0169,-0.005 0.0941,-0.0251 0.003,-7.9e-4 0.014,-0.003 0.0228,-0.002 0.12659,-0.0109 h 0.002 l 0.0108,-10e-4 0.13681,0.0125 0.0247,0.002 0.014,0.003 0.11851,0.0317 0.003,5.3e-4 0.0214,0.007 0.0314,0.0141 0.0929,0.0437 0.007,0.003 0.0167,0.008 0.014,0.009 0.008,0.005 0.0733,0.0512 0.039,0.0275 0.097,0.0971 0.0175,0.0177 0.0787,0.11243 0.014,0.0199 0.002,0.005 0.0124,0.0251 0.008,0.0177 0.0464,0.0995 0.0355,0.13254 0.007,0.0242 0.001,0.0109 0.001,0.0141 z"
       style="fill:none;stroke:#0000ff;stroke-width:0.04099619;stroke-miterlimit:4;stroke-dasharray:none"
       inkscape:connector-curvature="0" />
    <path
       id="path8343"
       d="m 116.99401,95.330411 0.007,0.0758 -0.0124,0.13674 -0.002,0.0247 -0.0354,0.133 -0.007,0.0237 -0.033,0.0712 -0.007,0.0125 -0.005,0.01 -0.0249,0.0536 -0.0787,0.11259 -0.014,0.0204 -0.01,0.01 -0.0502,0.0503 -0.008,0.008 -0.047,0.0469 -0.11247,0.0791 -0.0203,0.0141 -0.0278,0.0125 -0.0936,0.0437 -0.005,0.002 -0.003,7.9e-4 -0.0169,0.008 -5.3e-4,5.3e-4 -0.13263,0.0354 -0.0239,0.007 -0.0793,0.007 -0.014,0.001 -0.0108,0.001 -0.0575,0.005 -0.0934,-0.008 -0.0169,-0.002 -0.008,-5.3e-4 -0.0434,-0.003 -0.1117,-0.0303 -0.0201,-0.005 -0.003,-0.001 -0.021,-0.007 -0.12438,-0.0582 -0.0225,-0.0109 -0.11247,-0.0787 -0.0203,-0.0141 -0.0545,-0.0544 -0.0427,-0.0428 -0.01,-0.01 -0.008,-0.008 -0.0787,-0.11257 -0.014,-0.0204 -0.0579,-0.12459 -0.0108,-0.0223 -0.0356,-0.13253 -0.007,-0.0242 -0.0124,-0.13677 -0.002,-0.0246 0.0124,-0.13674 0.002,-0.0246 0.0355,-0.13255 0.007,-0.0242 0.0579,-0.12458 0.0108,-0.0223 0.0787,-0.1126 0.014,-0.02 0.01,-0.01 0.097,-0.0971 0.008,-0.008 0.11248,-0.0787 0.0203,-0.0141 0.0527,-0.0247 0.0719,-0.0335 0.01,-0.005 0.0124,-0.007 0.005,-10e-4 0.0249,-0.007 0.0169,-0.005 0.0941,-0.0251 0.003,-7.9e-4 0.014,-0.003 0.0228,-0.002 0.12659,-0.0109 h 0.002 l 0.0108,-10e-4 0.13681,0.0125 0.0247,0.002 0.014,0.003 0.11851,0.0317 0.003,5.3e-4 0.0214,0.007 0.0314,0.0141 0.0929,0.0437 0.007,0.003 0.0167,0.008 0.014,0.009 0.008,0.005 0.0733,0.0512 0.039,0.0275 0.097,0.0971 0.0175,0.0177 0.0787,0.11243 0.014,0.0199 0.002,0.005 0.0124,0.0251 0.008,0.0177 0.0464,0.0995 0.0355,0.13254 0.007,0.0242 0.001,0.0109 0.001,0.0141 z"
       style="fill:none;stroke:#0000ff;stroke-width:0.04099619;stroke-miterlimit:4;stroke-dasharray:none"
       inkscape:connector-curvature="0" />
    <path
       id="path1507"
       d="m 129.21544,10.938733 c -0.83855,0 -1.51412,0.5676 -1.51412,1.272275 v 1.548226 h 0.11885 v 11.410638 c -0.55816,-2.1e-4 -1.12394,0.142497 -1.64021,0.450097 L 92.979413,45.401075 a 8.9386071,9.3386069 0 0 0 -6.76755,9.050058 8.9386071,9.3386069 0 0 0 8.93899,9.338389 8.9386071,9.3386069 0 0 0 2.759,-0.46767 c 0.0866,-0.026 0.17219,-0.0557 0.25735,-0.0894 a 8.9386071,9.3386069 0 0 0 2.506307,-1.441254 l 27.14666,-16.174116 v 0.10593 h -0.11885 v 3.332599 c 0,0.704667 0.67557,1.271754 1.51412,1.271754 h 19.44997 c 0.83855,0 1.51361,-0.567087 1.51361,-1.271754 v -3.572369 l 27.10429,16.148799 a 8.9386071,9.3386069 0 0 0 5.70921,2.157478 8.9386071,9.3386069 0 0 0 8.93847,-9.338389 8.9386071,9.3386069 0 0 0 -6.61148,-9.005098 L 152.04402,25.619969 c -0.56809,-0.33847 -1.19637,-0.480997 -1.80816,-0.448547 v -7.468759 a 20.318644,11.684412 0 0 0 -0.0563,-0.0217 v -5.469951 c 0,-0.704675 -0.67557,-1.272275 -1.51412,-1.272275 z"
       style="fill:none;fill-opacity:1;stroke:#000000;stroke-width:0.12121823;stroke-miterlimit:4;stroke-dasharray:none;stroke-opacity:1"
       inkscape:connector-curvature="0" />
    <circle
       r="0.95599604"
       transform="scale(-1,1)"
       cy="18.423788"
       cx="-138.94226"
       id="circle1509"
       style="fill:none;fill-rule:evenodd;stroke:#000000;stroke-width:0.08800796;stroke-miterlimit:4;stroke-dasharray:none;stroke-opacity:1" />
    <rect
       style="fill:none;stroke:#000000;stroke-width:0.08756624;stroke-miterlimit:4;stroke-dasharray:none;stroke-opacity:1"
       id="rect1511"
       width="2.9124341"
       height="14.912434"
       x="13.604918"
       y="-146.39847"
       transform="rotate(90)" />
    <circle
       r="0.95599604"
       transform="scale(-1,1)"
       style="fill:none;fill-rule:evenodd;stroke:#000000;stroke-width:0.08800796;stroke-miterlimit:4;stroke-dasharray:none;stroke-opacity:1"
       id="circle1513"
       cx="-138.94226"
       cy="47.327496" />
    <path
       inkscape:connector-curvature="0"
       style="fill:none;stroke:#0000ff;stroke-width:0.06459486;stroke-miterlimit:4;stroke-dasharray:none"
       d="m 96.697123,54.395183 0.005,0.0388 -0.0194,0.21544 -0.003,0.0388 -0.0566,0.209567 -0.011,0.0372 -0.091,0.19628 -0.017,0.0352 -0.0374,0.0528 -0.0864,0.12471 -0.008,0.0111 -0.017,0.0222 -0.15298,0.1531 -0.0271,0.027 -0.17725,0.12457 -0.0322,0.0222 -0.1787,0.0836 -0.017,0.008 -0.0322,0.0157 -0.003,0.002 -0.20873,0.0557 -0.0382,0.0111 -0.21311,0.0172 -0.0382,0.003 h -7.7e-4 -0.002 l -0.2153,-0.0197 -0.0389,-0.003 -0.11197,-0.03 -0.0973,-0.0262 -0.0194,-0.005 -0.017,-0.005 -0.19629,-0.0916 -0.0352,-0.0172 -0.17723,-0.12394 -0.0322,-0.0222 -0.0126,-0.0127 -0.0673,-0.068 -0.0158,-0.0141 -0.0856,-0.085 -0.1238,-0.177357 -0.0221,-0.0322 -0.011,-0.0197 -0.008,-0.0172 -0.0497,-0.10832 -0.0408,-0.088 -0.0566,-0.208807 -0.011,-0.038 -0.017,-0.21543 -0.005,-0.0388 0.0194,-0.215437 0.003,-0.0388 0.0566,-0.20879 0.011,-0.038 0.002,-0.005 0.0126,-0.0285 0.0158,-0.0299 0.0785,-0.167787 0.12396,-0.17734 0.0221,-0.0314 0.13973,-0.14049 0.0126,-0.0127 0.0248,-0.0255 0.002,-0.002 0.17724,-0.123937 0.0322,-0.0222 0.0293,-0.0157 0.16331,-0.0762 0.033,-0.0157 0.005,-0.003 0.20869,-0.0565 0.0382,-0.0111 0.2153,-0.0197 0.0389,-0.003 0.0126,0.002 0.0256,0.002 0.0733,0.005 0.14193,0.0127 0.0246,0.005 0.13263,0.036 0.0158,0.003 0.076,0.0197 0.19627,0.0916 0.0352,0.0172 0.17722,0.124407 0.0322,0.0222 0.15234,0.15311 0.0279,0.0277 0.12428,0.17735 0.0221,0.0314 0.0749,0.160407 0.0126,0.0285 0.003,0.008 0.017,0.0358 0.0565,0.20879 0.011,0.038 z"
       id="path1515" />
    <path
       inkscape:connector-curvature="0"
       style="fill:none;stroke:#0000ff;stroke-width:0.06457976;stroke-miterlimit:4;stroke-dasharray:none"
       d="m 184.38391,54.314173 0.0111,0.11939 -0.0195,0.21539 -0.003,0.0389 -0.0558,0.209487 -0.011,0.0373 -0.052,0.11215 -0.011,0.0197 -0.008,0.0157 -0.0392,0.0844 -0.12398,0.17735 -0.0221,0.0321 -0.0157,0.0157 -0.079,0.0792 -0.0126,0.0127 -0.0741,0.0739 -0.17719,0.12458 -0.032,0.0222 -0.0438,0.0197 -0.14745,0.0688 -0.008,0.003 -0.005,0.002 -0.0267,0.0127 -7.9e-4,8e-4 -0.20894,0.0558 -0.0376,0.0111 -0.12493,0.0111 -0.0221,0.002 -0.017,0.002 -0.0906,0.008 -0.14714,-0.0127 -0.0266,-0.003 -0.0126,-8e-4 -0.0684,-0.005 -0.17596,-0.0477 -0.0317,-0.008 -0.005,-0.002 -0.0331,-0.0111 -0.19596,-0.0917 -0.0354,-0.0172 -0.17718,-0.12397 -0.0319,-0.0222 -0.0858,-0.0857 -0.0673,-0.0674 -0.0157,-0.0157 -0.0126,-0.0127 -0.124,-0.177327 -0.0221,-0.0321 -0.0912,-0.19624 -0.017,-0.0351 -0.056,-0.208747 -0.011,-0.0381 -0.0195,-0.21542 -0.003,-0.0387 0.0195,-0.215377 0.003,-0.0387 0.0559,-0.20878 0.0111,-0.0381 0.0912,-0.196227 0.017,-0.0351 0.12398,-0.17736 0.0221,-0.0315 0.0157,-0.0157 0.15282,-0.15294 0.0126,-0.0127 0.1772,-0.123967 0.0319,-0.0222 0.083,-0.0389 0.11327,-0.0528 0.0157,-0.008 0.0195,-0.0111 0.008,-0.002 0.0392,-0.0111 0.0267,-0.008 0.14824,-0.0395 0.005,-0.001 0.0221,-0.005 0.0359,-0.003 0.19943,-0.0172 h 0.003 l 0.017,-0.002 0.21554,0.0197 0.0389,0.003 0.0221,0.005 0.1867,0.0499 0.005,7.9e-4 0.0337,0.0111 0.0495,0.0222 0.14635,0.0688 0.011,0.005 0.0263,0.0127 0.022,0.0141 0.0126,0.008 0.11548,0.0806 0.0614,0.0433 0.15282,0.15294 0.0276,0.0279 0.12398,0.1771 0.0221,0.0314 0.003,0.008 0.0195,0.0395 0.0126,0.0279 0.0731,0.156724 0.056,0.20877 0.011,0.0381 0.002,0.0172 0.002,0.0222 z"
       id="path1517" />
    <path
       style="opacity:1;fill:none;fill-opacity:1;stroke:#000000;stroke-width:0.14932044;stroke-linejoin:round;stroke-miterlimit:4;stroke-dasharray:none;stroke-dashoffset:0;stroke-opacity:1"
       d="m 145.09258,27.748157 a 5.9754902,5.9898481 0 0 0 -5.97562,-5.989397 5.9754902,5.9898481 0 0 0 -5.97506,5.989397 5.9754902,5.9898481 0 0 0 3.01608,5.19908 3.1176471,3.1251382 0 0 0 -0.15496,0.966894 3.1176471,3.1251382 0 0 0 3.11775,3.125222 3.1176471,3.1251382 0 0 0 3.11776,-3.125222 3.1176471,3.1251382 0 0 0 -0.15931,-0.972344 5.9754902,5.9898481 0 0 0 3.01336,-5.19363 z"
       id="path1519"
       inkscape:connector-curvature="0" />
    <path
       inkscape:connector-curvature="0"
       style="fill:none;stroke:#0000ff;stroke-width:0.04099619;stroke-miterlimit:4;stroke-dasharray:none"
       d="m 162.28601,41.355249 0.007,0.0758 -0.0124,0.13674 -0.002,0.0247 -0.0354,0.132997 -0.007,0.0237 -0.033,0.0712 -0.007,0.0125 -0.005,0.01 -0.0249,0.0536 -0.0787,0.11259 -0.014,0.0204 -0.01,0.01 -0.0502,0.0503 -0.008,0.008 -0.047,0.0469 -0.11247,0.0791 -0.0203,0.0141 -0.0278,0.0125 -0.0936,0.0437 -0.005,0.002 -0.003,7.9e-4 -0.0169,0.008 -5.3e-4,5.3e-4 -0.13263,0.0354 -0.0239,0.007 -0.0793,0.007 -0.014,10e-4 -0.0108,0.001 -0.0575,0.005 -0.0934,-0.008 -0.0169,-0.002 -0.008,-5.3e-4 -0.0434,-0.003 -0.1117,-0.0303 -0.0201,-0.005 -0.003,-0.001 -0.021,-0.007 -0.12439,-0.0582 -0.0225,-0.0109 -0.11247,-0.0787 -0.0203,-0.0141 -0.0545,-0.0544 -0.0427,-0.0428 -0.01,-0.01 -0.008,-0.008 -0.0787,-0.11257 -0.014,-0.0204 -0.0579,-0.12459 -0.0108,-0.0223 -0.0356,-0.13253 -0.007,-0.0242 -0.0124,-0.13677 -0.002,-0.0246 0.0124,-0.13674 0.002,-0.0246 0.0355,-0.13255 0.007,-0.0242 0.0579,-0.124577 0.0108,-0.0223 0.0787,-0.1126 0.014,-0.02 0.01,-0.01 0.097,-0.0971 0.008,-0.008 0.11248,-0.0787 0.0203,-0.0141 0.0527,-0.0247 0.0719,-0.0335 0.01,-0.005 0.0124,-0.007 0.005,-9.97e-4 0.0249,-0.007 0.0169,-0.005 0.0941,-0.0251 0.003,-7.9e-4 0.014,-0.003 0.0228,-0.002 0.12659,-0.0109 h 0.002 l 0.0108,-10e-4 0.13681,0.0125 0.0247,0.002 0.014,0.003 0.11851,0.0317 0.003,5.3e-4 0.0214,0.007 0.0314,0.0141 0.0929,0.0437 0.007,0.003 0.0167,0.008 0.014,0.009 0.008,0.005 0.0733,0.0512 0.039,0.0275 0.097,0.0971 0.0175,0.0177 0.0787,0.11243 0.014,0.0199 0.002,0.005 0.0124,0.0251 0.008,0.0177 0.0464,0.0995 0.0355,0.13254 0.007,0.0242 0.001,0.0109 0.001,0.0141 z"
       id="path1521" />
    <path
       inkscape:connector-curvature="0"
       style="fill:none;stroke:#0000ff;stroke-width:0.04099619;stroke-miterlimit:4;stroke-dasharray:none"
       d="m 116.99401,41.355249 0.007,0.0758 -0.0124,0.13674 -0.002,0.0247 -0.0354,0.132997 -0.007,0.0237 -0.033,0.0712 -0.007,0.0125 -0.005,0.01 -0.0249,0.0536 -0.0787,0.11259 -0.014,0.0204 -0.01,0.01 -0.0502,0.0503 -0.008,0.008 -0.047,0.0469 -0.11247,0.0791 -0.0203,0.0141 -0.0278,0.0125 -0.0936,0.0437 -0.005,0.002 -0.003,7.9e-4 -0.0169,0.008 -5.3e-4,5.3e-4 -0.13263,0.0354 -0.0239,0.007 -0.0793,0.007 -0.014,10e-4 -0.0108,0.001 -0.0575,0.005 -0.0934,-0.008 -0.0169,-0.002 -0.008,-5.3e-4 -0.0434,-0.003 -0.1117,-0.0303 -0.0201,-0.005 -0.003,-0.001 -0.021,-0.007 -0.12438,-0.0582 -0.0225,-0.0109 -0.11247,-0.0787 -0.0203,-0.0141 -0.0545,-0.0544 -0.0427,-0.0428 -0.01,-0.01 -0.008,-0.008 -0.0787,-0.11257 -0.014,-0.0204 -0.0579,-0.12459 -0.0108,-0.0223 -0.0356,-0.13253 -0.007,-0.0242 -0.0124,-0.13677 -0.002,-0.0246 0.0124,-0.13674 0.002,-0.0246 0.0355,-0.13255 0.007,-0.0242 0.0579,-0.124577 0.0108,-0.0223 0.0787,-0.1126 0.014,-0.02 0.01,-0.01 0.097,-0.0971 0.008,-0.008 0.11248,-0.0787 0.0203,-0.0141 0.0527,-0.0247 0.0719,-0.0335 0.01,-0.005 0.0124,-0.007 0.005,-9.97e-4 0.0249,-0.007 0.0169,-0.005 0.0941,-0.0251 0.003,-7.9e-4 0.014,-0.003 0.0228,-0.002 0.12659,-0.0109 h 0.002 l 0.0108,-10e-4 0.13681,0.0125 0.0247,0.002 0.014,0.003 0.11851,0.0317 0.003,5.3e-4 0.0214,0.007 0.0314,0.0141 0.0929,0.0437 0.007,0.003 0.0167,0.008 0.014,0.009 0.008,0.005 0.0733,0.0512 0.039,0.0275 0.097,0.0971 0.0175,0.0177 0.0787,0.11243 0.014,0.0199 0.002,0.005 0.0124,0.0251 0.008,0.0177 0.0464,0.0995 0.0355,0.13254 0.007,0.0242 0.001,0.0109 0.001,0.0141 z"
       id="path1523" />
  </g>
</svg>
