<?xml version="1.0" encoding="UTF-8" standalone="no"?>
<!-- Created with Inkscape (http://www.inkscape.org/) -->

<svg
   xmlns:dc="http://purl.org/dc/elements/1.1/"
   xmlns:cc="http://creativecommons.org/ns#"
   xmlns:rdf="http://www.w3.org/1999/02/22-rdf-syntax-ns#"
   xmlns:svg="http://www.w3.org/2000/svg"
   xmlns="http://www.w3.org/2000/svg"
   xmlns:sodipodi="http://sodipodi.sourceforge.net/DTD/sodipodi-0.dtd"
   xmlns:inkscape="http://www.inkscape.org/namespaces/inkscape"
   width="210mm"
   height="297mm"
   viewBox="0 0 210 297"
   version="1.1"
   id="svg8383"
   inkscape:version="0.92.3 (2405546, 2018-03-11)"
   sodipodi:docname="microbit_standbeast_gear.svg">
  <defs
     id="defs8377" />
  <sodipodi:namedview
     id="base"
     pagecolor="#ffffff"
     bordercolor="#666666"
     borderopacity="1.0"
     inkscape:pageopacity="0.0"
     inkscape:pageshadow="2"
     inkscape:zoom="1.0702757"
     inkscape:cx="251.43219"
     inkscape:cy="853.70796"
     inkscape:document-units="mm"
     inkscape:current-layer="layer1"
     showgrid="false"
     inkscape:window-width="1366"
     inkscape:window-height="705"
     inkscape:window-x="-8"
     inkscape:window-y="-8"
     inkscape:window-maximized="1" />
  <metadata
     id="metadata8380">
    <rdf:RDF>
      <cc:Work
         rdf:about="">
        <dc:format>image/svg+xml</dc:format>
        <dc:type
           rdf:resource="http://purl.org/dc/dcmitype/StillImage" />
        <dc:title></dc:title>
      </cc:Work>
    </rdf:RDF>
  </metadata>
  <g
     inkscape:label="圖層 1"
     inkscape:groupmode="layer"
     id="layer1">
    <g
       id="g2428"
       inkscape:label="Gear24"
       transform="matrix(0.16895096,0,0,0.16899281,34.625711,22.829072)">
      <path
         id="path2426"
         style="fill:none;stroke:#000000;stroke-width:0.26458332"
         d="m 69.80222,-5.62101 1.75337,-0.14119 4.67522,0.76577 6.49842,2.71905 v 4.55476 l -6.49842,2.71905 -4.67522,0.76577 -1.75337,-0.14119 -0.92363,7.01566 1.73017,0.31742 4.31772,1.94971 5.57325,4.30832 -1.17886,4.39956 -6.98074,0.94449 -4.7141,-0.47036 -1.65709,-0.59019 -2.70794,6.53755 1.58906,0.75441 3.66597,3.00079 4.26828,5.60398 -2.27739,3.94453 -6.98732,-0.89444 -4.43174,-1.67443 -1.44787,-0.99897 -4.30772,5.61393 1.33967,1.13998 2.76439,3.84736 2.67242,6.51774 -3.2207,3.2207 -6.51774,-2.67242 -3.84736,-2.76439 -1.13998,-1.33967 -5.61393,4.30772 0.99897,1.44787 1.67443,4.43174 0.89444,6.98732 -3.94453,2.27739 -5.60398,-4.26828 -3.00079,-3.66597 -0.75441,-1.58906 -6.53755,2.70794 0.59019,1.65709 0.47036,4.7141 -0.94449,6.98074 -4.39956,1.17886 -4.30832,-5.57325 -1.94971,-4.31772 -0.31742,-1.73017 -7.01566,0.92363 0.14119,1.75337 -0.76577,4.67522 -2.71905,6.49842 h -4.55476 l -2.71905,-6.49842 -0.76577,-4.67522 0.14119,-1.75337 -7.01566,-0.92363 -0.31742,1.73017 -1.94971,4.31772 -4.30832,5.57325 -4.39956,-1.17886 -0.94449,-6.98074 0.47036,-4.7141 0.59019,-1.65709 -6.53755,-2.70794 -0.75441,1.58906 -3.00079,3.66597 -5.60398,4.26828 -3.94453,-2.27739 0.89444,-6.98732 1.67443,-4.43174 0.99897,-1.44787 -5.61393,-4.30772 -1.13998,1.33967 -3.84736,2.76439 -6.51774,2.67242 -3.2207,-3.2207 2.67242,-6.51774 2.76439,-3.84736 1.33967,-1.13998 -4.30772,-5.61393 -1.44787,0.99897 -4.43174,1.67443 -6.98732,0.89444 -2.27739,-3.94453 4.26828,-5.60398 3.66597,-3.00079 1.58906,-0.75441 -2.70794,-6.53755 -1.65709,0.59019 -4.7141,0.47036 -6.98074,-0.94449 -1.17886,-4.39956 5.57325,-4.30832 4.31772,-1.94971 1.73017,-0.31742 -0.92363,-7.01566 -1.75337,0.14119 -4.67522,-0.76577 -6.49842,-2.71905 v -4.55476 l 6.49842,-2.71905 4.67522,-0.76577 1.75337,0.14119 0.92363,-7.01566 -1.73017,-0.31742 -4.31772,-1.94971 -5.57325,-4.30832 1.17886,-4.39956 6.98074,-0.94449 4.7141,0.47036 1.65709,0.59019 2.70794,-6.53755 -1.58906,-0.75441 -3.66597,-3.00079 -4.26828,-5.60398 2.27739,-3.94453 6.98732,0.89444 4.43174,1.67443 1.44787,0.99897 4.30772,-5.61393 -1.33967,-1.13998 -2.76439,-3.84736 -2.67242,-6.51774 3.2207,-3.2207 6.51774,2.67242 3.84736,2.76439 1.13998,1.33967 5.61393,-4.30772 -0.99897,-1.44787 -1.67443,-4.43174 -0.89444,-6.98732 3.94453,-2.27739 5.60398,4.26828 3.00079,3.66597 0.75441,1.58906 6.53755,-2.70794 -0.59019,-1.65709 -0.47036,-4.7141 0.94449,-6.98074 4.39956,-1.17886 4.30832,5.57325 1.94971,4.31772 0.31742,1.73017 7.01566,-0.92363 -0.14119,-1.75337 0.76577,-4.67522 2.71905,-6.49842 h 4.55476 l 2.71905,6.49842 0.76577,4.67522 -0.14119,1.75337 7.01566,0.92363 0.31742,-1.73017 1.94971,-4.31772 4.30832,-5.57325 4.39956,1.17886 0.94449,6.98074 -0.47036,4.7141 -0.59019,1.65709 6.53755,2.70794 0.75441,-1.58906 3.00079,-3.66597 5.60398,-4.26828 3.94453,2.27739 -0.89444,6.98732 -1.67443,4.43174 -0.99897,1.44787 5.61393,4.30772 1.13998,-1.33967 3.84736,-2.76439 6.51774,-2.67242 3.2207,3.2207 -2.67242,6.51774 -2.76439,3.84736 -1.33967,1.13998 4.30772,5.61393 1.44787,-0.99897 4.43174,-1.67443 6.98732,-0.89444 2.27739,3.94453 -4.26828,5.60398 -3.66597,3.00079 -1.58906,0.75441 2.70794,6.53755 1.65709,-0.59019 4.7141,-0.47036 6.98074,0.94449 1.17886,4.39956 -5.57325,4.30832 -4.31772,1.94971 -1.73017,0.31742 z"
         inkscape:connector-curvature="0" />
    </g>
    <ellipse
       style="opacity:1;fill:none;fill-opacity:1;stroke:#000000;stroke-width:0.09192843;stroke-linejoin:round;stroke-miterlimit:4;stroke-dasharray:none;stroke-dashoffset:0;stroke-opacity:1"
       id="path4401"
       cx="32.829037"
       cy="17.46907"
       r="0.90403587" />
    <path
       style="opacity:1;fill:none;fill-opacity:1;stroke:#000000;stroke-width:0.08627925;stroke-linejoin:round;stroke-miterlimit:4;stroke-dasharray:none;stroke-dashoffset:0;stroke-opacity:1"
       d="m 32.138,14.070976 -0.506,6.394958 -0.199806,1.042314 c -0.173603,0.418744 -0.263152,0.867545 -0.26355,1.320849 0.001,0.451739 0.09054,0.898901 0.26355,1.316199 l 0.199806,0.802535 0.506,7.027477 5.1,0.188619 0.399,-7.499283 0.199971,-0.564306 c 0.161153,-0.404506 0.244434,-0.835817 0.245462,-1.271241 -3.11e-4,-0.437336 -0.0836,-0.870642 -0.245462,-1.276924 L 37.637,20.890197 37.238,14.070976 Z"
       id="path4398"
       inkscape:connector-curvature="0"
       sodipodi:nodetypes="ccccccccccccccc" />
    <circle
       style="opacity:1;fill:none;fill-opacity:1;stroke:#000000;stroke-width:0.07257508;stroke-linejoin:round;stroke-miterlimit:4;stroke-dasharray:none;stroke-dashoffset:0;stroke-opacity:1"
       id="circle935"
       cx="27.6"
       cy="18.993999"
       r="0.71371245" />
    <circle
       cy="18.993999"
       cx="41.887001"
       id="circle937"
       style="opacity:1;fill:none;fill-opacity:1;stroke:#000000;stroke-width:0.07257508;stroke-linejoin:round;stroke-miterlimit:4;stroke-dasharray:none;stroke-dashoffset:0;stroke-opacity:1"
       r="0.71371245" />
    <circle
       cy="27.459999"
       cx="27.6"
       id="circle939"
       style="opacity:1;fill:none;fill-opacity:1;stroke:#000000;stroke-width:0.07257508;stroke-linejoin:round;stroke-miterlimit:4;stroke-dasharray:none;stroke-dashoffset:0;stroke-opacity:1"
       r="0.71371245" />
    <circle
       style="opacity:1;fill:none;fill-opacity:1;stroke:#000000;stroke-width:0.07257508;stroke-linejoin:round;stroke-miterlimit:4;stroke-dasharray:none;stroke-dashoffset:0;stroke-opacity:1"
       id="circle941"
       cx="41.887001"
       cy="27.459999"
       r="0.71371245" />
    <g
       transform="matrix(0.16895096,0,0,0.16899281,34.625711,53.520758)"
       inkscape:label="Gear24"
       id="g945">
      <path
         inkscape:connector-curvature="0"
         d="m 69.80222,-5.62101 1.75337,-0.14119 4.67522,0.76577 6.49842,2.71905 v 4.55476 l -6.49842,2.71905 -4.67522,0.76577 -1.75337,-0.14119 -0.92363,7.01566 1.73017,0.31742 4.31772,1.94971 5.57325,4.30832 -1.17886,4.39956 -6.98074,0.94449 -4.7141,-0.47036 -1.65709,-0.59019 -2.70794,6.53755 1.58906,0.75441 3.66597,3.00079 4.26828,5.60398 -2.27739,3.94453 -6.98732,-0.89444 -4.43174,-1.67443 -1.44787,-0.99897 -4.30772,5.61393 1.33967,1.13998 2.76439,3.84736 2.67242,6.51774 -3.2207,3.2207 -6.51774,-2.67242 -3.84736,-2.76439 -1.13998,-1.33967 -5.61393,4.30772 0.99897,1.44787 1.67443,4.43174 0.89444,6.98732 -3.94453,2.27739 -5.60398,-4.26828 -3.00079,-3.66597 -0.75441,-1.58906 -6.53755,2.70794 0.59019,1.65709 0.47036,4.7141 -0.94449,6.98074 -4.39956,1.17886 -4.30832,-5.57325 -1.94971,-4.31772 -0.31742,-1.73017 -7.01566,0.92363 0.14119,1.75337 -0.76577,4.67522 -2.71905,6.49842 h -4.55476 l -2.71905,-6.49842 -0.76577,-4.67522 0.14119,-1.75337 -7.01566,-0.92363 -0.31742,1.73017 -1.94971,4.31772 -4.30832,5.57325 -4.39956,-1.17886 -0.94449,-6.98074 0.47036,-4.7141 0.59019,-1.65709 -6.53755,-2.70794 -0.75441,1.58906 -3.00079,3.66597 -5.60398,4.26828 -3.94453,-2.27739 0.89444,-6.98732 1.67443,-4.43174 0.99897,-1.44787 -5.61393,-4.30772 -1.13998,1.33967 -3.84736,2.76439 -6.51774,2.67242 -3.2207,-3.2207 2.67242,-6.51774 2.76439,-3.84736 1.33967,-1.13998 -4.30772,-5.61393 -1.44787,0.99897 -4.43174,1.67443 -6.98732,0.89444 -2.27739,-3.94453 4.26828,-5.60398 3.66597,-3.00079 1.58906,-0.75441 -2.70794,-6.53755 -1.65709,0.59019 -4.7141,0.47036 -6.98074,-0.94449 -1.17886,-4.39956 5.57325,-4.30832 4.31772,-1.94971 1.73017,-0.31742 -0.92363,-7.01566 -1.75337,0.14119 -4.67522,-0.76577 -6.49842,-2.71905 v -4.55476 l 6.49842,-2.71905 4.67522,-0.76577 1.75337,0.14119 0.92363,-7.01566 -1.73017,-0.31742 -4.31772,-1.94971 -5.57325,-4.30832 1.17886,-4.39956 6.98074,-0.94449 4.7141,0.47036 1.65709,0.59019 2.70794,-6.53755 -1.58906,-0.75441 -3.66597,-3.00079 -4.26828,-5.60398 2.27739,-3.94453 6.98732,0.89444 4.43174,1.67443 1.44787,0.99897 4.30772,-5.61393 -1.33967,-1.13998 -2.76439,-3.84736 -2.67242,-6.51774 3.2207,-3.2207 6.51774,2.67242 3.84736,2.76439 1.13998,1.33967 5.61393,-4.30772 -0.99897,-1.44787 -1.67443,-4.43174 -0.89444,-6.98732 3.94453,-2.27739 5.60398,4.26828 3.00079,3.66597 0.75441,1.58906 6.53755,-2.70794 -0.59019,-1.65709 -0.47036,-4.7141 0.94449,-6.98074 4.39956,-1.17886 4.30832,5.57325 1.94971,4.31772 0.31742,1.73017 7.01566,-0.92363 -0.14119,-1.75337 0.76577,-4.67522 2.71905,-6.49842 h 4.55476 l 2.71905,6.49842 0.76577,4.67522 -0.14119,1.75337 7.01566,0.92363 0.31742,-1.73017 1.94971,-4.31772 4.30832,-5.57325 4.39956,1.17886 0.94449,6.98074 -0.47036,4.7141 -0.59019,1.65709 6.53755,2.70794 0.75441,-1.58906 3.00079,-3.66597 5.60398,-4.26828 3.94453,2.27739 -0.89444,6.98732 -1.67443,4.43174 -0.99897,1.44787 5.61393,4.30772 1.13998,-1.33967 3.84736,-2.76439 6.51774,-2.67242 3.2207,3.2207 -2.67242,6.51774 -2.76439,3.84736 -1.33967,1.13998 4.30772,5.61393 1.44787,-0.99897 4.43174,-1.67443 6.98732,-0.89444 2.27739,3.94453 -4.26828,5.60398 -3.66597,3.00079 -1.58906,0.75441 2.70794,6.53755 1.65709,-0.59019 4.7141,-0.47036 6.98074,0.94449 1.17886,4.39956 -5.57325,4.30832 -4.31772,1.94971 -1.73017,0.31742 z"
         style="fill:none;stroke:#000000;stroke-width:0.26458332"
         id="path943" />
    </g>
    <path
       style="opacity:1;fill:none;fill-opacity:1;stroke:#000000;stroke-width:0.06162804;stroke-linejoin:round;stroke-miterlimit:4;stroke-dasharray:none;stroke-dashoffset:0;stroke-opacity:1"
       d="m 34.028418,44.741454 c -0.203764,0 -0.367419,0.163655 -0.367419,0.367419 v 6.141744 a 2.4691858,2.469186 0 0 0 -1.504818,2.270146 2.4691858,2.469186 0 0 0 1.504818,2.272731 v 6.527249 c 0,0.203764 0.163655,0.367935 0.367419,0.367935 h 1.211814 c 0.203763,0 0.367934,-0.164171 0.367934,-0.367935 v -6.537586 a 2.4691858,2.469186 0 0 0 1.486731,-2.262394 2.4691858,2.469186 0 0 0 -1.486731,-2.263945 v -6.147945 c 0,-0.203764 -0.164171,-0.367419 -0.367934,-0.367419 z"
       id="ellipse947"
       inkscape:connector-curvature="0" />
    <circle
       r="0.90403587"
       cy="49.685303"
       cx="27.599886"
       id="circle951"
       style="opacity:1;fill:none;fill-opacity:1;stroke:#000000;stroke-width:0.09192843;stroke-linejoin:round;stroke-miterlimit:4;stroke-dasharray:none;stroke-dashoffset:0;stroke-opacity:1" />
    <circle
       style="opacity:1;fill:none;fill-opacity:1;stroke:#000000;stroke-width:0.09192843;stroke-linejoin:round;stroke-miterlimit:4;stroke-dasharray:none;stroke-dashoffset:0;stroke-opacity:1"
       id="circle953"
       cx="41.887398"
       cy="49.685303"
       r="0.90403587" />
    <circle
       style="opacity:1;fill:none;fill-opacity:1;stroke:#000000;stroke-width:0.09192843;stroke-linejoin:round;stroke-miterlimit:4;stroke-dasharray:none;stroke-dashoffset:0;stroke-opacity:1"
       id="circle955"
       cx="27.599886"
       cy="58.151978"
       r="0.90403587" />
    <circle
       r="0.90403587"
       cy="58.151978"
       cx="41.887398"
       id="circle957"
       style="opacity:1;fill:none;fill-opacity:1;stroke:#000000;stroke-width:0.09192843;stroke-linejoin:round;stroke-miterlimit:4;stroke-dasharray:none;stroke-dashoffset:0;stroke-opacity:1" />
    <g
       transform="matrix(0.16895096,0,0,0.16899281,65.435114,23.122516)"
       inkscape:label="Gear24"
       id="g1059">
      <path
         inkscape:connector-curvature="0"
         d="m 69.80222,-5.62101 1.75337,-0.14119 4.67522,0.76577 6.49842,2.71905 v 4.55476 l -6.49842,2.71905 -4.67522,0.76577 -1.75337,-0.14119 -0.92363,7.01566 1.73017,0.31742 4.31772,1.94971 5.57325,4.30832 -1.17886,4.39956 -6.98074,0.94449 -4.7141,-0.47036 -1.65709,-0.59019 -2.70794,6.53755 1.58906,0.75441 3.66597,3.00079 4.26828,5.60398 -2.27739,3.94453 -6.98732,-0.89444 -4.43174,-1.67443 -1.44787,-0.99897 -4.30772,5.61393 1.33967,1.13998 2.76439,3.84736 2.67242,6.51774 -3.2207,3.2207 -6.51774,-2.67242 -3.84736,-2.76439 -1.13998,-1.33967 -5.61393,4.30772 0.99897,1.44787 1.67443,4.43174 0.89444,6.98732 -3.94453,2.27739 -5.60398,-4.26828 -3.00079,-3.66597 -0.75441,-1.58906 -6.53755,2.70794 0.59019,1.65709 0.47036,4.7141 -0.94449,6.98074 -4.39956,1.17886 -4.30832,-5.57325 -1.94971,-4.31772 -0.31742,-1.73017 -7.01566,0.92363 0.14119,1.75337 -0.76577,4.67522 -2.71905,6.49842 h -4.55476 l -2.71905,-6.49842 -0.76577,-4.67522 0.14119,-1.75337 -7.01566,-0.92363 -0.31742,1.73017 -1.94971,4.31772 -4.30832,5.57325 -4.39956,-1.17886 -0.94449,-6.98074 0.47036,-4.7141 0.59019,-1.65709 -6.53755,-2.70794 -0.75441,1.58906 -3.00079,3.66597 -5.60398,4.26828 -3.94453,-2.27739 0.89444,-6.98732 1.67443,-4.43174 0.99897,-1.44787 -5.61393,-4.30772 -1.13998,1.33967 -3.84736,2.76439 -6.51774,2.67242 -3.2207,-3.2207 2.67242,-6.51774 2.76439,-3.84736 1.33967,-1.13998 -4.30772,-5.61393 -1.44787,0.99897 -4.43174,1.67443 -6.98732,0.89444 -2.27739,-3.94453 4.26828,-5.60398 3.66597,-3.00079 1.58906,-0.75441 -2.70794,-6.53755 -1.65709,0.59019 -4.7141,0.47036 -6.98074,-0.94449 -1.17886,-4.39956 5.57325,-4.30832 4.31772,-1.94971 1.73017,-0.31742 -0.92363,-7.01566 -1.75337,0.14119 -4.67522,-0.76577 -6.49842,-2.71905 v -4.55476 l 6.49842,-2.71905 4.67522,-0.76577 1.75337,0.14119 0.92363,-7.01566 -1.73017,-0.31742 -4.31772,-1.94971 -5.57325,-4.30832 1.17886,-4.39956 6.98074,-0.94449 4.7141,0.47036 1.65709,0.59019 2.70794,-6.53755 -1.58906,-0.75441 -3.66597,-3.00079 -4.26828,-5.60398 2.27739,-3.94453 6.98732,0.89444 4.43174,1.67443 1.44787,0.99897 4.30772,-5.61393 -1.33967,-1.13998 -2.76439,-3.84736 -2.67242,-6.51774 3.2207,-3.2207 6.51774,2.67242 3.84736,2.76439 1.13998,1.33967 5.61393,-4.30772 -0.99897,-1.44787 -1.67443,-4.43174 -0.89444,-6.98732 3.94453,-2.27739 5.60398,4.26828 3.00079,3.66597 0.75441,1.58906 6.53755,-2.70794 -0.59019,-1.65709 -0.47036,-4.7141 0.94449,-6.98074 4.39956,-1.17886 4.30832,5.57325 1.94971,4.31772 0.31742,1.73017 7.01566,-0.92363 -0.14119,-1.75337 0.76577,-4.67522 2.71905,-6.49842 h 4.55476 l 2.71905,6.49842 0.76577,4.67522 -0.14119,1.75337 7.01566,0.92363 0.31742,-1.73017 1.94971,-4.31772 4.30832,-5.57325 4.39956,1.17886 0.94449,6.98074 -0.47036,4.7141 -0.59019,1.65709 6.53755,2.70794 0.75441,-1.58906 3.00079,-3.66597 5.60398,-4.26828 3.94453,2.27739 -0.89444,6.98732 -1.67443,4.43174 -0.99897,1.44787 5.61393,4.30772 1.13998,-1.33967 3.84736,-2.76439 6.51774,-2.67242 3.2207,3.2207 -2.67242,6.51774 -2.76439,3.84736 -1.33967,1.13998 4.30772,5.61393 1.44787,-0.99897 4.43174,-1.67443 6.98732,-0.89444 2.27739,3.94453 -4.26828,5.60398 -3.66597,3.00079 -1.58906,0.75441 2.70794,6.53755 1.65709,-0.59019 4.7141,-0.47036 6.98074,0.94449 1.17886,4.39956 -5.57325,4.30832 -4.31772,1.94971 -1.73017,0.31742 z"
         style="fill:none;stroke:#000000;stroke-width:0.26458332"
         id="path1057" />
    </g>
    <circle
       r="0.80887413"
       cy="23.122505"
       cx="65.435112"
       id="circle1061"
       style="opacity:1;fill:none;fill-opacity:1;stroke:#000000;stroke-width:0.08225174;stroke-linejoin:round;stroke-miterlimit:4;stroke-dasharray:none;stroke-dashoffset:0;stroke-opacity:1" />
    <circle
       r="0.80887413"
       style="opacity:1;fill:none;fill-opacity:1;stroke:#000000;stroke-width:0.08225176;stroke-linejoin:round;stroke-miterlimit:4;stroke-dasharray:none;stroke-dashoffset:0;stroke-opacity:1"
       id="circle1063"
       cx="65.550125"
       cy="14.584834" />
    <circle
       r="0.80887413"
       cy="31.323769"
       cx="65.618919"
       id="circle1065"
       style="opacity:1;fill:none;fill-opacity:1;stroke:#000000;stroke-width:0.08225176;stroke-linejoin:round;stroke-miterlimit:4;stroke-dasharray:none;stroke-dashoffset:0;stroke-opacity:1" />
    <circle
       r="0.80887413"
       style="opacity:1;fill:none;fill-opacity:1;stroke:#000000;stroke-width:0.08225176;stroke-linejoin:round;stroke-miterlimit:4;stroke-dasharray:none;stroke-dashoffset:0;stroke-opacity:1"
       id="circle1067"
       cx="73.874588"
       cy="22.999302" />
    <circle
       r="0.80887413"
       cy="22.999302"
       cx="57.135651"
       id="circle1069"
       style="opacity:1;fill:none;fill-opacity:1;stroke:#000000;stroke-width:0.08225176;stroke-linejoin:round;stroke-miterlimit:4;stroke-dasharray:none;stroke-dashoffset:0;stroke-opacity:1" />
    <circle
       style="opacity:1;fill:none;fill-opacity:1;stroke:#000000;stroke-width:0.08225174;stroke-linejoin:round;stroke-miterlimit:4;stroke-dasharray:none;stroke-dashoffset:0;stroke-opacity:1"
       id="circle1010"
       cx="70.726784"
       cy="23.122505"
       r="0.80887413" />
    <circle
       style="opacity:1;fill:none;fill-opacity:1;stroke:#000000;stroke-width:0.08225174;stroke-linejoin:round;stroke-miterlimit:4;stroke-dasharray:none;stroke-dashoffset:0;stroke-opacity:1"
       id="circle1012"
       cx="60.14344"
       cy="23.122505"
       r="0.80887413" />
    <circle
       style="opacity:1;fill:none;fill-opacity:1;stroke:#000000;stroke-width:0.08225174;stroke-linejoin:round;stroke-miterlimit:4;stroke-dasharray:none;stroke-dashoffset:0;stroke-opacity:1"
       id="circle1014"
       cx="65.435112"
       cy="17.830833"
       r="0.80887413" />
    <circle
       style="opacity:1;fill:none;fill-opacity:1;stroke:#000000;stroke-width:0.08225174;stroke-linejoin:round;stroke-miterlimit:4;stroke-dasharray:none;stroke-dashoffset:0;stroke-opacity:1"
       id="circle1016"
       cx="65.435112"
       cy="28.414177"
       r="0.80887413" />
    <circle
       r="0.80887413"
       cy="18.889168"
       cx="69.668449"
       id="circle1026"
       style="opacity:1;fill:none;fill-opacity:1;stroke:#000000;stroke-width:0.08225174;stroke-linejoin:round;stroke-miterlimit:4;stroke-dasharray:none;stroke-dashoffset:0;stroke-opacity:1" />
    <circle
       r="0.80887413"
       cy="27.355843"
       cx="61.201775"
       id="circle1028"
       style="opacity:1;fill:none;fill-opacity:1;stroke:#000000;stroke-width:0.08225174;stroke-linejoin:round;stroke-miterlimit:4;stroke-dasharray:none;stroke-dashoffset:0;stroke-opacity:1" />
    <g
       id="g1032"
       inkscape:label="Gear24"
       transform="matrix(0.16895096,0,0,0.16899281,96.655967,23.122516)">
      <path
         id="path1030"
         style="fill:none;stroke:#000000;stroke-width:0.26458332"
         d="m 69.80222,-5.62101 1.75337,-0.14119 4.67522,0.76577 6.49842,2.71905 v 4.55476 l -6.49842,2.71905 -4.67522,0.76577 -1.75337,-0.14119 -0.92363,7.01566 1.73017,0.31742 4.31772,1.94971 5.57325,4.30832 -1.17886,4.39956 -6.98074,0.94449 -4.7141,-0.47036 -1.65709,-0.59019 -2.70794,6.53755 1.58906,0.75441 3.66597,3.00079 4.26828,5.60398 -2.27739,3.94453 -6.98732,-0.89444 -4.43174,-1.67443 -1.44787,-0.99897 -4.30772,5.61393 1.33967,1.13998 2.76439,3.84736 2.67242,6.51774 -3.2207,3.2207 -6.51774,-2.67242 -3.84736,-2.76439 -1.13998,-1.33967 -5.61393,4.30772 0.99897,1.44787 1.67443,4.43174 0.89444,6.98732 -3.94453,2.27739 -5.60398,-4.26828 -3.00079,-3.66597 -0.75441,-1.58906 -6.53755,2.70794 0.59019,1.65709 0.47036,4.7141 -0.94449,6.98074 -4.39956,1.17886 -4.30832,-5.57325 -1.94971,-4.31772 -0.31742,-1.73017 -7.01566,0.92363 0.14119,1.75337 -0.76577,4.67522 -2.71905,6.49842 h -4.55476 l -2.71905,-6.49842 -0.76577,-4.67522 0.14119,-1.75337 -7.01566,-0.92363 -0.31742,1.73017 -1.94971,4.31772 -4.30832,5.57325 -4.39956,-1.17886 -0.94449,-6.98074 0.47036,-4.7141 0.59019,-1.65709 -6.53755,-2.70794 -0.75441,1.58906 -3.00079,3.66597 -5.60398,4.26828 -3.94453,-2.27739 0.89444,-6.98732 1.67443,-4.43174 0.99897,-1.44787 -5.61393,-4.30772 -1.13998,1.33967 -3.84736,2.76439 -6.51774,2.67242 -3.2207,-3.2207 2.67242,-6.51774 2.76439,-3.84736 1.33967,-1.13998 -4.30772,-5.61393 -1.44787,0.99897 -4.43174,1.67443 -6.98732,0.89444 -2.27739,-3.94453 4.26828,-5.60398 3.66597,-3.00079 1.58906,-0.75441 -2.70794,-6.53755 -1.65709,0.59019 -4.7141,0.47036 -6.98074,-0.94449 -1.17886,-4.39956 5.57325,-4.30832 4.31772,-1.94971 1.73017,-0.31742 -0.92363,-7.01566 -1.75337,0.14119 -4.67522,-0.76577 -6.49842,-2.71905 v -4.55476 l 6.49842,-2.71905 4.67522,-0.76577 1.75337,0.14119 0.92363,-7.01566 -1.73017,-0.31742 -4.31772,-1.94971 -5.57325,-4.30832 1.17886,-4.39956 6.98074,-0.94449 4.7141,0.47036 1.65709,0.59019 2.70794,-6.53755 -1.58906,-0.75441 -3.66597,-3.00079 -4.26828,-5.60398 2.27739,-3.94453 6.98732,0.89444 4.43174,1.67443 1.44787,0.99897 4.30772,-5.61393 -1.33967,-1.13998 -2.76439,-3.84736 -2.67242,-6.51774 3.2207,-3.2207 6.51774,2.67242 3.84736,2.76439 1.13998,1.33967 5.61393,-4.30772 -0.99897,-1.44787 -1.67443,-4.43174 -0.89444,-6.98732 3.94453,-2.27739 5.60398,4.26828 3.00079,3.66597 0.75441,1.58906 6.53755,-2.70794 -0.59019,-1.65709 -0.47036,-4.7141 0.94449,-6.98074 4.39956,-1.17886 4.30832,5.57325 1.94971,4.31772 0.31742,1.73017 7.01566,-0.92363 -0.14119,-1.75337 0.76577,-4.67522 2.71905,-6.49842 h 4.55476 l 2.71905,6.49842 0.76577,4.67522 -0.14119,1.75337 7.01566,0.92363 0.31742,-1.73017 1.94971,-4.31772 4.30832,-5.57325 4.39956,1.17886 0.94449,6.98074 -0.47036,4.7141 -0.59019,1.65709 6.53755,2.70794 0.75441,-1.58906 3.00079,-3.66597 5.60398,-4.26828 3.94453,2.27739 -0.89444,6.98732 -1.67443,4.43174 -0.99897,1.44787 5.61393,4.30772 1.13998,-1.33967 3.84736,-2.76439 6.51774,-2.67242 3.2207,3.2207 -2.67242,6.51774 -2.76439,3.84736 -1.33967,1.13998 4.30772,5.61393 1.44787,-0.99897 4.43174,-1.67443 6.98732,-0.89444 2.27739,3.94453 -4.26828,5.60398 -3.66597,3.00079 -1.58906,0.75441 2.70794,6.53755 1.65709,-0.59019 4.7141,-0.47036 6.98074,0.94449 1.17886,4.39956 -5.57325,4.30832 -4.31772,1.94971 -1.73017,0.31742 z"
         inkscape:connector-curvature="0" />
    </g>
    <circle
       style="opacity:1;fill:none;fill-opacity:1;stroke:#000000;stroke-width:0.08225174;stroke-linejoin:round;stroke-miterlimit:4;stroke-dasharray:none;stroke-dashoffset:0;stroke-opacity:1"
       id="circle1034"
       cx="96.655975"
       cy="23.122505"
       r="0.80887413" />
    <circle
       cy="14.584834"
       cx="96.770988"
       id="circle1036"
       style="opacity:1;fill:none;fill-opacity:1;stroke:#000000;stroke-width:0.08225176;stroke-linejoin:round;stroke-miterlimit:4;stroke-dasharray:none;stroke-dashoffset:0;stroke-opacity:1"
       r="0.80887413" />
    <circle
       style="opacity:1;fill:none;fill-opacity:1;stroke:#000000;stroke-width:0.08225176;stroke-linejoin:round;stroke-miterlimit:4;stroke-dasharray:none;stroke-dashoffset:0;stroke-opacity:1"
       id="circle1038"
       cx="96.839783"
       cy="31.323769"
       r="0.80887413" />
    <circle
       cy="22.999302"
       cx="105.09544"
       id="circle1040"
       style="opacity:1;fill:none;fill-opacity:1;stroke:#000000;stroke-width:0.08225176;stroke-linejoin:round;stroke-miterlimit:4;stroke-dasharray:none;stroke-dashoffset:0;stroke-opacity:1"
       r="0.80887413" />
    <circle
       style="opacity:1;fill:none;fill-opacity:1;stroke:#000000;stroke-width:0.08225176;stroke-linejoin:round;stroke-miterlimit:4;stroke-dasharray:none;stroke-dashoffset:0;stroke-opacity:1"
       id="circle1042"
       cx="88.356514"
       cy="22.999302"
       r="0.80887413" />
    <circle
       r="0.80887413"
       cy="23.122505"
       cx="101.94765"
       id="circle1044"
       style="opacity:1;fill:none;fill-opacity:1;stroke:#000000;stroke-width:0.08225174;stroke-linejoin:round;stroke-miterlimit:4;stroke-dasharray:none;stroke-dashoffset:0;stroke-opacity:1" />
    <circle
       r="0.80887413"
       cy="23.122505"
       cx="91.364304"
       id="circle1046"
       style="opacity:1;fill:none;fill-opacity:1;stroke:#000000;stroke-width:0.08225174;stroke-linejoin:round;stroke-miterlimit:4;stroke-dasharray:none;stroke-dashoffset:0;stroke-opacity:1" />
    <circle
       r="0.80887413"
       cy="17.830833"
       cx="96.655975"
       id="circle1048"
       style="opacity:1;fill:none;fill-opacity:1;stroke:#000000;stroke-width:0.08225174;stroke-linejoin:round;stroke-miterlimit:4;stroke-dasharray:none;stroke-dashoffset:0;stroke-opacity:1" />
    <circle
       r="0.80887413"
       cy="28.414177"
       cx="96.655975"
       id="circle1050"
       style="opacity:1;fill:none;fill-opacity:1;stroke:#000000;stroke-width:0.08225174;stroke-linejoin:round;stroke-miterlimit:4;stroke-dasharray:none;stroke-dashoffset:0;stroke-opacity:1" />
    <circle
       style="opacity:1;fill:none;fill-opacity:1;stroke:#000000;stroke-width:0.08225174;stroke-linejoin:round;stroke-miterlimit:4;stroke-dasharray:none;stroke-dashoffset:0;stroke-opacity:1"
       id="circle1052"
       cx="100.88932"
       cy="18.889168"
       r="0.80887413" />
    <circle
       style="opacity:1;fill:none;fill-opacity:1;stroke:#000000;stroke-width:0.08225174;stroke-linejoin:round;stroke-miterlimit:4;stroke-dasharray:none;stroke-dashoffset:0;stroke-opacity:1"
       id="circle1054"
       cx="92.422638"
       cy="27.355843"
       r="0.80887413" />
    <g
       id="g1058"
       inkscape:label="Gear24"
       transform="matrix(0.16895096,0,0,0.16899281,65.435114,53.814202)">
      <path
         id="path1056"
         style="fill:none;stroke:#000000;stroke-width:0.26458332"
         d="m 69.80222,-5.62101 1.75337,-0.14119 4.67522,0.76577 6.49842,2.71905 v 4.55476 l -6.49842,2.71905 -4.67522,0.76577 -1.75337,-0.14119 -0.92363,7.01566 1.73017,0.31742 4.31772,1.94971 5.57325,4.30832 -1.17886,4.39956 -6.98074,0.94449 -4.7141,-0.47036 -1.65709,-0.59019 -2.70794,6.53755 1.58906,0.75441 3.66597,3.00079 4.26828,5.60398 -2.27739,3.94453 -6.98732,-0.89444 -4.43174,-1.67443 -1.44787,-0.99897 -4.30772,5.61393 1.33967,1.13998 2.76439,3.84736 2.67242,6.51774 -3.2207,3.2207 -6.51774,-2.67242 -3.84736,-2.76439 -1.13998,-1.33967 -5.61393,4.30772 0.99897,1.44787 1.67443,4.43174 0.89444,6.98732 -3.94453,2.27739 -5.60398,-4.26828 -3.00079,-3.66597 -0.75441,-1.58906 -6.53755,2.70794 0.59019,1.65709 0.47036,4.7141 -0.94449,6.98074 -4.39956,1.17886 -4.30832,-5.57325 -1.94971,-4.31772 -0.31742,-1.73017 -7.01566,0.92363 0.14119,1.75337 -0.76577,4.67522 -2.71905,6.49842 h -4.55476 l -2.71905,-6.49842 -0.76577,-4.67522 0.14119,-1.75337 -7.01566,-0.92363 -0.31742,1.73017 -1.94971,4.31772 -4.30832,5.57325 -4.39956,-1.17886 -0.94449,-6.98074 0.47036,-4.7141 0.59019,-1.65709 -6.53755,-2.70794 -0.75441,1.58906 -3.00079,3.66597 -5.60398,4.26828 -3.94453,-2.27739 0.89444,-6.98732 1.67443,-4.43174 0.99897,-1.44787 -5.61393,-4.30772 -1.13998,1.33967 -3.84736,2.76439 -6.51774,2.67242 -3.2207,-3.2207 2.67242,-6.51774 2.76439,-3.84736 1.33967,-1.13998 -4.30772,-5.61393 -1.44787,0.99897 -4.43174,1.67443 -6.98732,0.89444 -2.27739,-3.94453 4.26828,-5.60398 3.66597,-3.00079 1.58906,-0.75441 -2.70794,-6.53755 -1.65709,0.59019 -4.7141,0.47036 -6.98074,-0.94449 -1.17886,-4.39956 5.57325,-4.30832 4.31772,-1.94971 1.73017,-0.31742 -0.92363,-7.01566 -1.75337,0.14119 -4.67522,-0.76577 -6.49842,-2.71905 v -4.55476 l 6.49842,-2.71905 4.67522,-0.76577 1.75337,0.14119 0.92363,-7.01566 -1.73017,-0.31742 -4.31772,-1.94971 -5.57325,-4.30832 1.17886,-4.39956 6.98074,-0.94449 4.7141,0.47036 1.65709,0.59019 2.70794,-6.53755 -1.58906,-0.75441 -3.66597,-3.00079 -4.26828,-5.60398 2.27739,-3.94453 6.98732,0.89444 4.43174,1.67443 1.44787,0.99897 4.30772,-5.61393 -1.33967,-1.13998 -2.76439,-3.84736 -2.67242,-6.51774 3.2207,-3.2207 6.51774,2.67242 3.84736,2.76439 1.13998,1.33967 5.61393,-4.30772 -0.99897,-1.44787 -1.67443,-4.43174 -0.89444,-6.98732 3.94453,-2.27739 5.60398,4.26828 3.00079,3.66597 0.75441,1.58906 6.53755,-2.70794 -0.59019,-1.65709 -0.47036,-4.7141 0.94449,-6.98074 4.39956,-1.17886 4.30832,5.57325 1.94971,4.31772 0.31742,1.73017 7.01566,-0.92363 -0.14119,-1.75337 0.76577,-4.67522 2.71905,-6.49842 h 4.55476 l 2.71905,6.49842 0.76577,4.67522 -0.14119,1.75337 7.01566,0.92363 0.31742,-1.73017 1.94971,-4.31772 4.30832,-5.57325 4.39956,1.17886 0.94449,6.98074 -0.47036,4.7141 -0.59019,1.65709 6.53755,2.70794 0.75441,-1.58906 3.00079,-3.66597 5.60398,-4.26828 3.94453,2.27739 -0.89444,6.98732 -1.67443,4.43174 -0.99897,1.44787 5.61393,4.30772 1.13998,-1.33967 3.84736,-2.76439 6.51774,-2.67242 3.2207,3.2207 -2.67242,6.51774 -2.76439,3.84736 -1.33967,1.13998 4.30772,5.61393 1.44787,-0.99897 4.43174,-1.67443 6.98732,-0.89444 2.27739,3.94453 -4.26828,5.60398 -3.66597,3.00079 -1.58906,0.75441 2.70794,6.53755 1.65709,-0.59019 4.7141,-0.47036 6.98074,0.94449 1.17886,4.39956 -5.57325,4.30832 -4.31772,1.94971 -1.73017,0.31742 z"
         inkscape:connector-curvature="0" />
    </g>
    <circle
       style="opacity:1;fill:none;fill-opacity:1;stroke:#000000;stroke-width:0.08225174;stroke-linejoin:round;stroke-miterlimit:4;stroke-dasharray:none;stroke-dashoffset:0;stroke-opacity:1"
       id="circle1060"
       cx="65.435112"
       cy="53.814201"
       r="0.80887413" />
    <circle
       cy="45.276527"
       cx="65.550125"
       id="circle1062"
       style="opacity:1;fill:none;fill-opacity:1;stroke:#000000;stroke-width:0.08225176;stroke-linejoin:round;stroke-miterlimit:4;stroke-dasharray:none;stroke-dashoffset:0;stroke-opacity:1"
       r="0.80887413" />
    <circle
       style="opacity:1;fill:none;fill-opacity:1;stroke:#000000;stroke-width:0.08225176;stroke-linejoin:round;stroke-miterlimit:4;stroke-dasharray:none;stroke-dashoffset:0;stroke-opacity:1"
       id="circle1064"
       cx="65.618919"
       cy="62.015465"
       r="0.80887413" />
    <circle
       cy="53.690998"
       cx="73.874588"
       id="circle1066"
       style="opacity:1;fill:none;fill-opacity:1;stroke:#000000;stroke-width:0.08225176;stroke-linejoin:round;stroke-miterlimit:4;stroke-dasharray:none;stroke-dashoffset:0;stroke-opacity:1"
       r="0.80887413" />
    <circle
       style="opacity:1;fill:none;fill-opacity:1;stroke:#000000;stroke-width:0.08225176;stroke-linejoin:round;stroke-miterlimit:4;stroke-dasharray:none;stroke-dashoffset:0;stroke-opacity:1"
       id="circle1068"
       cx="57.135651"
       cy="53.690998"
       r="0.80887413" />
    <circle
       r="0.80887413"
       cy="53.814201"
       cx="70.726784"
       id="circle1070"
       style="opacity:1;fill:none;fill-opacity:1;stroke:#000000;stroke-width:0.08225174;stroke-linejoin:round;stroke-miterlimit:4;stroke-dasharray:none;stroke-dashoffset:0;stroke-opacity:1" />
    <circle
       r="0.80887413"
       cy="53.814201"
       cx="60.14344"
       id="circle1072"
       style="opacity:1;fill:none;fill-opacity:1;stroke:#000000;stroke-width:0.08225174;stroke-linejoin:round;stroke-miterlimit:4;stroke-dasharray:none;stroke-dashoffset:0;stroke-opacity:1" />
    <circle
       r="0.80887413"
       cy="48.52253"
       cx="65.435112"
       id="circle1074"
       style="opacity:1;fill:none;fill-opacity:1;stroke:#000000;stroke-width:0.08225174;stroke-linejoin:round;stroke-miterlimit:4;stroke-dasharray:none;stroke-dashoffset:0;stroke-opacity:1" />
    <circle
       r="0.80887413"
       cy="59.105873"
       cx="65.435112"
       id="circle1076"
       style="opacity:1;fill:none;fill-opacity:1;stroke:#000000;stroke-width:0.08225174;stroke-linejoin:round;stroke-miterlimit:4;stroke-dasharray:none;stroke-dashoffset:0;stroke-opacity:1" />
    <circle
       style="opacity:1;fill:none;fill-opacity:1;stroke:#000000;stroke-width:0.08225174;stroke-linejoin:round;stroke-miterlimit:4;stroke-dasharray:none;stroke-dashoffset:0;stroke-opacity:1"
       id="circle1078"
       cx="69.668449"
       cy="49.580864"
       r="0.80887413" />
    <circle
       style="opacity:1;fill:none;fill-opacity:1;stroke:#000000;stroke-width:0.08225174;stroke-linejoin:round;stroke-miterlimit:4;stroke-dasharray:none;stroke-dashoffset:0;stroke-opacity:1"
       id="circle1080"
       cx="61.201775"
       cy="58.047539"
       r="0.80887413" />
    <g
       transform="matrix(0.16895096,0,0,0.16899281,96.655967,53.814202)"
       inkscape:label="Gear24"
       id="g1084">
      <path
         inkscape:connector-curvature="0"
         d="m 69.80222,-5.62101 1.75337,-0.14119 4.67522,0.76577 6.49842,2.71905 v 4.55476 l -6.49842,2.71905 -4.67522,0.76577 -1.75337,-0.14119 -0.92363,7.01566 1.73017,0.31742 4.31772,1.94971 5.57325,4.30832 -1.17886,4.39956 -6.98074,0.94449 -4.7141,-0.47036 -1.65709,-0.59019 -2.70794,6.53755 1.58906,0.75441 3.66597,3.00079 4.26828,5.60398 -2.27739,3.94453 -6.98732,-0.89444 -4.43174,-1.67443 -1.44787,-0.99897 -4.30772,5.61393 1.33967,1.13998 2.76439,3.84736 2.67242,6.51774 -3.2207,3.2207 -6.51774,-2.67242 -3.84736,-2.76439 -1.13998,-1.33967 -5.61393,4.30772 0.99897,1.44787 1.67443,4.43174 0.89444,6.98732 -3.94453,2.27739 -5.60398,-4.26828 -3.00079,-3.66597 -0.75441,-1.58906 -6.53755,2.70794 0.59019,1.65709 0.47036,4.7141 -0.94449,6.98074 -4.39956,1.17886 -4.30832,-5.57325 -1.94971,-4.31772 -0.31742,-1.73017 -7.01566,0.92363 0.14119,1.75337 -0.76577,4.67522 -2.71905,6.49842 h -4.55476 l -2.71905,-6.49842 -0.76577,-4.67522 0.14119,-1.75337 -7.01566,-0.92363 -0.31742,1.73017 -1.94971,4.31772 -4.30832,5.57325 -4.39956,-1.17886 -0.94449,-6.98074 0.47036,-4.7141 0.59019,-1.65709 -6.53755,-2.70794 -0.75441,1.58906 -3.00079,3.66597 -5.60398,4.26828 -3.94453,-2.27739 0.89444,-6.98732 1.67443,-4.43174 0.99897,-1.44787 -5.61393,-4.30772 -1.13998,1.33967 -3.84736,2.76439 -6.51774,2.67242 -3.2207,-3.2207 2.67242,-6.51774 2.76439,-3.84736 1.33967,-1.13998 -4.30772,-5.61393 -1.44787,0.99897 -4.43174,1.67443 -6.98732,0.89444 -2.27739,-3.94453 4.26828,-5.60398 3.66597,-3.00079 1.58906,-0.75441 -2.70794,-6.53755 -1.65709,0.59019 -4.7141,0.47036 -6.98074,-0.94449 -1.17886,-4.39956 5.57325,-4.30832 4.31772,-1.94971 1.73017,-0.31742 -0.92363,-7.01566 -1.75337,0.14119 -4.67522,-0.76577 -6.49842,-2.71905 v -4.55476 l 6.49842,-2.71905 4.67522,-0.76577 1.75337,0.14119 0.92363,-7.01566 -1.73017,-0.31742 -4.31772,-1.94971 -5.57325,-4.30832 1.17886,-4.39956 6.98074,-0.94449 4.7141,0.47036 1.65709,0.59019 2.70794,-6.53755 -1.58906,-0.75441 -3.66597,-3.00079 -4.26828,-5.60398 2.27739,-3.94453 6.98732,0.89444 4.43174,1.67443 1.44787,0.99897 4.30772,-5.61393 -1.33967,-1.13998 -2.76439,-3.84736 -2.67242,-6.51774 3.2207,-3.2207 6.51774,2.67242 3.84736,2.76439 1.13998,1.33967 5.61393,-4.30772 -0.99897,-1.44787 -1.67443,-4.43174 -0.89444,-6.98732 3.94453,-2.27739 5.60398,4.26828 3.00079,3.66597 0.75441,1.58906 6.53755,-2.70794 -0.59019,-1.65709 -0.47036,-4.7141 0.94449,-6.98074 4.39956,-1.17886 4.30832,5.57325 1.94971,4.31772 0.31742,1.73017 7.01566,-0.92363 -0.14119,-1.75337 0.76577,-4.67522 2.71905,-6.49842 h 4.55476 l 2.71905,6.49842 0.76577,4.67522 -0.14119,1.75337 7.01566,0.92363 0.31742,-1.73017 1.94971,-4.31772 4.30832,-5.57325 4.39956,1.17886 0.94449,6.98074 -0.47036,4.7141 -0.59019,1.65709 6.53755,2.70794 0.75441,-1.58906 3.00079,-3.66597 5.60398,-4.26828 3.94453,2.27739 -0.89444,6.98732 -1.67443,4.43174 -0.99897,1.44787 5.61393,4.30772 1.13998,-1.33967 3.84736,-2.76439 6.51774,-2.67242 3.2207,3.2207 -2.67242,6.51774 -2.76439,3.84736 -1.33967,1.13998 4.30772,5.61393 1.44787,-0.99897 4.43174,-1.67443 6.98732,-0.89444 2.27739,3.94453 -4.26828,5.60398 -3.66597,3.00079 -1.58906,0.75441 2.70794,6.53755 1.65709,-0.59019 4.7141,-0.47036 6.98074,0.94449 1.17886,4.39956 -5.57325,4.30832 -4.31772,1.94971 -1.73017,0.31742 z"
         style="fill:none;stroke:#000000;stroke-width:0.26458332"
         id="path1082" />
    </g>
    <circle
       r="0.80887413"
       cy="53.814201"
       cx="96.655975"
       id="circle1086"
       style="opacity:1;fill:none;fill-opacity:1;stroke:#000000;stroke-width:0.08225174;stroke-linejoin:round;stroke-miterlimit:4;stroke-dasharray:none;stroke-dashoffset:0;stroke-opacity:1" />
    <circle
       r="0.80887413"
       style="opacity:1;fill:none;fill-opacity:1;stroke:#000000;stroke-width:0.08225176;stroke-linejoin:round;stroke-miterlimit:4;stroke-dasharray:none;stroke-dashoffset:0;stroke-opacity:1"
       id="circle1088"
       cx="96.770988"
       cy="45.276527" />
    <circle
       r="0.80887413"
       cy="62.015465"
       cx="96.839783"
       id="circle1090"
       style="opacity:1;fill:none;fill-opacity:1;stroke:#000000;stroke-width:0.08225176;stroke-linejoin:round;stroke-miterlimit:4;stroke-dasharray:none;stroke-dashoffset:0;stroke-opacity:1" />
    <circle
       r="0.80887413"
       style="opacity:1;fill:none;fill-opacity:1;stroke:#000000;stroke-width:0.08225176;stroke-linejoin:round;stroke-miterlimit:4;stroke-dasharray:none;stroke-dashoffset:0;stroke-opacity:1"
       id="circle1092"
       cx="105.09544"
       cy="53.690998" />
    <circle
       r="0.80887413"
       cy="53.690998"
       cx="88.356514"
       id="circle1094"
       style="opacity:1;fill:none;fill-opacity:1;stroke:#000000;stroke-width:0.08225176;stroke-linejoin:round;stroke-miterlimit:4;stroke-dasharray:none;stroke-dashoffset:0;stroke-opacity:1" />
    <circle
       style="opacity:1;fill:none;fill-opacity:1;stroke:#000000;stroke-width:0.08225174;stroke-linejoin:round;stroke-miterlimit:4;stroke-dasharray:none;stroke-dashoffset:0;stroke-opacity:1"
       id="circle1096"
       cx="101.94765"
       cy="53.814201"
       r="0.80887413" />
    <circle
       style="opacity:1;fill:none;fill-opacity:1;stroke:#000000;stroke-width:0.08225174;stroke-linejoin:round;stroke-miterlimit:4;stroke-dasharray:none;stroke-dashoffset:0;stroke-opacity:1"
       id="circle1098"
       cx="91.364304"
       cy="53.814201"
       r="0.80887413" />
    <circle
       style="opacity:1;fill:none;fill-opacity:1;stroke:#000000;stroke-width:0.08225174;stroke-linejoin:round;stroke-miterlimit:4;stroke-dasharray:none;stroke-dashoffset:0;stroke-opacity:1"
       id="circle1100"
       cx="96.655975"
       cy="48.52253"
       r="0.80887413" />
    <circle
       style="opacity:1;fill:none;fill-opacity:1;stroke:#000000;stroke-width:0.08225174;stroke-linejoin:round;stroke-miterlimit:4;stroke-dasharray:none;stroke-dashoffset:0;stroke-opacity:1"
       id="circle1102"
       cx="96.655975"
       cy="59.105873"
       r="0.80887413" />
    <circle
       r="0.80887413"
       cy="49.580864"
       cx="100.88932"
       id="circle1104"
       style="opacity:1;fill:none;fill-opacity:1;stroke:#000000;stroke-width:0.08225174;stroke-linejoin:round;stroke-miterlimit:4;stroke-dasharray:none;stroke-dashoffset:0;stroke-opacity:1" />
    <circle
       r="0.80887413"
       cy="58.047539"
       cx="92.422638"
       id="circle1106"
       style="opacity:1;fill:none;fill-opacity:1;stroke:#000000;stroke-width:0.08225174;stroke-linejoin:round;stroke-miterlimit:4;stroke-dasharray:none;stroke-dashoffset:0;stroke-opacity:1" />
    <g
       transform="matrix(0.16895096,0,0,0.16899281,36.393568,88.432044)"
       inkscape:label="Gear24"
       id="g1709">
      <path
         inkscape:connector-curvature="0"
         d="m 69.80222,-5.62101 1.75337,-0.14119 4.67522,0.76577 6.49842,2.71905 v 4.55476 l -6.49842,2.71905 -4.67522,0.76577 -1.75337,-0.14119 -0.92363,7.01566 1.73017,0.31742 4.31772,1.94971 5.57325,4.30832 -1.17886,4.39956 -6.98074,0.94449 -4.7141,-0.47036 -1.65709,-0.59019 -2.70794,6.53755 1.58906,0.75441 3.66597,3.00079 4.26828,5.60398 -2.27739,3.94453 -6.98732,-0.89444 -4.43174,-1.67443 -1.44787,-0.99897 -4.30772,5.61393 1.33967,1.13998 2.76439,3.84736 2.67242,6.51774 -3.2207,3.2207 -6.51774,-2.67242 -3.84736,-2.76439 -1.13998,-1.33967 -5.61393,4.30772 0.99897,1.44787 1.67443,4.43174 0.89444,6.98732 -3.94453,2.27739 -5.60398,-4.26828 -3.00079,-3.66597 -0.75441,-1.58906 -6.53755,2.70794 0.59019,1.65709 0.47036,4.7141 -0.94449,6.98074 -4.39956,1.17886 -4.30832,-5.57325 -1.94971,-4.31772 -0.31742,-1.73017 -7.01566,0.92363 0.14119,1.75337 -0.76577,4.67522 -2.71905,6.49842 h -4.55476 l -2.71905,-6.49842 -0.76577,-4.67522 0.14119,-1.75337 -7.01566,-0.92363 -0.31742,1.73017 -1.94971,4.31772 -4.30832,5.57325 -4.39956,-1.17886 -0.94449,-6.98074 0.47036,-4.7141 0.59019,-1.65709 -6.53755,-2.70794 -0.75441,1.58906 -3.00079,3.66597 -5.60398,4.26828 -3.94453,-2.27739 0.89444,-6.98732 1.67443,-4.43174 0.99897,-1.44787 -5.61393,-4.30772 -1.13998,1.33967 -3.84736,2.76439 -6.51774,2.67242 -3.2207,-3.2207 2.67242,-6.51774 2.76439,-3.84736 1.33967,-1.13998 -4.30772,-5.61393 -1.44787,0.99897 -4.43174,1.67443 -6.98732,0.89444 -2.27739,-3.94453 4.26828,-5.60398 3.66597,-3.00079 1.58906,-0.75441 -2.70794,-6.53755 -1.65709,0.59019 -4.7141,0.47036 -6.98074,-0.94449 -1.17886,-4.39956 5.57325,-4.30832 4.31772,-1.94971 1.73017,-0.31742 -0.92363,-7.01566 -1.75337,0.14119 -4.67522,-0.76577 -6.49842,-2.71905 v -4.55476 l 6.49842,-2.71905 4.67522,-0.76577 1.75337,0.14119 0.92363,-7.01566 -1.73017,-0.31742 -4.31772,-1.94971 -5.57325,-4.30832 1.17886,-4.39956 6.98074,-0.94449 4.7141,0.47036 1.65709,0.59019 2.70794,-6.53755 -1.58906,-0.75441 -3.66597,-3.00079 -4.26828,-5.60398 2.27739,-3.94453 6.98732,0.89444 4.43174,1.67443 1.44787,0.99897 4.30772,-5.61393 -1.33967,-1.13998 -2.76439,-3.84736 -2.67242,-6.51774 3.2207,-3.2207 6.51774,2.67242 3.84736,2.76439 1.13998,1.33967 5.61393,-4.30772 -0.99897,-1.44787 -1.67443,-4.43174 -0.89444,-6.98732 3.94453,-2.27739 5.60398,4.26828 3.00079,3.66597 0.75441,1.58906 6.53755,-2.70794 -0.59019,-1.65709 -0.47036,-4.7141 0.94449,-6.98074 4.39956,-1.17886 4.30832,5.57325 1.94971,4.31772 0.31742,1.73017 7.01566,-0.92363 -0.14119,-1.75337 0.76577,-4.67522 2.71905,-6.49842 h 4.55476 l 2.71905,6.49842 0.76577,4.67522 -0.14119,1.75337 7.01566,0.92363 0.31742,-1.73017 1.94971,-4.31772 4.30832,-5.57325 4.39956,1.17886 0.94449,6.98074 -0.47036,4.7141 -0.59019,1.65709 6.53755,2.70794 0.75441,-1.58906 3.00079,-3.66597 5.60398,-4.26828 3.94453,2.27739 -0.89444,6.98732 -1.67443,4.43174 -0.99897,1.44787 5.61393,4.30772 1.13998,-1.33967 3.84736,-2.76439 6.51774,-2.67242 3.2207,3.2207 -2.67242,6.51774 -2.76439,3.84736 -1.33967,1.13998 4.30772,5.61393 1.44787,-0.99897 4.43174,-1.67443 6.98732,-0.89444 2.27739,3.94453 -4.26828,5.60398 -3.66597,3.00079 -1.58906,0.75441 2.70794,6.53755 1.65709,-0.59019 4.7141,-0.47036 6.98074,0.94449 1.17886,4.39956 -5.57325,4.30832 -4.31772,1.94971 -1.73017,0.31742 z"
         style="fill:none;stroke:#000000;stroke-width:0.26458332"
         id="path1707" />
    </g>
    <path
       sodipodi:nodetypes="ccccccccccccccc"
       inkscape:connector-curvature="0"
       id="path1711"
       d="m 33.905857,79.673948 -0.506,6.394958 -0.199806,1.042314 c -0.173603,0.418744 -0.263152,0.867545 -0.26355,1.320849 10e-4,0.451739 0.09054,0.898901 0.26355,1.316199 l 0.199806,0.802535 0.506,7.027452 5.1,0.18862 0.399,-7.499259 0.199971,-0.564306 c 0.161153,-0.404506 0.244434,-0.835817 0.245462,-1.271241 -3.11e-4,-0.437336 -0.0836,-0.870642 -0.245462,-1.276924 l -0.199971,-0.661976 -0.399,-6.819221 z"
       style="opacity:1;fill:none;fill-opacity:1;stroke:#000000;stroke-width:0.08627925;stroke-linejoin:round;stroke-miterlimit:4;stroke-dasharray:none;stroke-dashoffset:0;stroke-opacity:1" />
    <circle
       r="0.71371245"
       cy="84.59697"
       cx="29.367857"
       id="circle1713"
       style="opacity:1;fill:none;fill-opacity:1;stroke:#000000;stroke-width:0.07257508;stroke-linejoin:round;stroke-miterlimit:4;stroke-dasharray:none;stroke-dashoffset:0;stroke-opacity:1" />
    <circle
       r="0.71371245"
       style="opacity:1;fill:none;fill-opacity:1;stroke:#000000;stroke-width:0.07257508;stroke-linejoin:round;stroke-miterlimit:4;stroke-dasharray:none;stroke-dashoffset:0;stroke-opacity:1"
       id="circle1715"
       cx="43.654858"
       cy="84.59697" />
    <circle
       r="0.71371245"
       style="opacity:1;fill:none;fill-opacity:1;stroke:#000000;stroke-width:0.07257508;stroke-linejoin:round;stroke-miterlimit:4;stroke-dasharray:none;stroke-dashoffset:0;stroke-opacity:1"
       id="circle1717"
       cx="29.367857"
       cy="93.062965" />
    <circle
       r="0.71371245"
       cy="93.062965"
       cx="43.654858"
       id="circle1719"
       style="opacity:1;fill:none;fill-opacity:1;stroke:#000000;stroke-width:0.07257508;stroke-linejoin:round;stroke-miterlimit:4;stroke-dasharray:none;stroke-dashoffset:0;stroke-opacity:1" />
    <g
       id="g1723"
       inkscape:label="Gear24"
       transform="matrix(0.16895096,0,0,0.16899281,36.393568,119.12369)">
      <path
         id="path1721"
         style="fill:none;stroke:#000000;stroke-width:0.26458332"
         d="m 69.80222,-5.62101 1.75337,-0.14119 4.67522,0.76577 6.49842,2.71905 v 4.55476 l -6.49842,2.71905 -4.67522,0.76577 -1.75337,-0.14119 -0.92363,7.01566 1.73017,0.31742 4.31772,1.94971 5.57325,4.30832 -1.17886,4.39956 -6.98074,0.94449 -4.7141,-0.47036 -1.65709,-0.59019 -2.70794,6.53755 1.58906,0.75441 3.66597,3.00079 4.26828,5.60398 -2.27739,3.94453 -6.98732,-0.89444 -4.43174,-1.67443 -1.44787,-0.99897 -4.30772,5.61393 1.33967,1.13998 2.76439,3.84736 2.67242,6.51774 -3.2207,3.2207 -6.51774,-2.67242 -3.84736,-2.76439 -1.13998,-1.33967 -5.61393,4.30772 0.99897,1.44787 1.67443,4.43174 0.89444,6.98732 -3.94453,2.27739 -5.60398,-4.26828 -3.00079,-3.66597 -0.75441,-1.58906 -6.53755,2.70794 0.59019,1.65709 0.47036,4.7141 -0.94449,6.98074 -4.39956,1.17886 -4.30832,-5.57325 -1.94971,-4.31772 -0.31742,-1.73017 -7.01566,0.92363 0.14119,1.75337 -0.76577,4.67522 -2.71905,6.49842 h -4.55476 l -2.71905,-6.49842 -0.76577,-4.67522 0.14119,-1.75337 -7.01566,-0.92363 -0.31742,1.73017 -1.94971,4.31772 -4.30832,5.57325 -4.39956,-1.17886 -0.94449,-6.98074 0.47036,-4.7141 0.59019,-1.65709 -6.53755,-2.70794 -0.75441,1.58906 -3.00079,3.66597 -5.60398,4.26828 -3.94453,-2.27739 0.89444,-6.98732 1.67443,-4.43174 0.99897,-1.44787 -5.61393,-4.30772 -1.13998,1.33967 -3.84736,2.76439 -6.51774,2.67242 -3.2207,-3.2207 2.67242,-6.51774 2.76439,-3.84736 1.33967,-1.13998 -4.30772,-5.61393 -1.44787,0.99897 -4.43174,1.67443 -6.98732,0.89444 -2.27739,-3.94453 4.26828,-5.60398 3.66597,-3.00079 1.58906,-0.75441 -2.70794,-6.53755 -1.65709,0.59019 -4.7141,0.47036 -6.98074,-0.94449 -1.17886,-4.39956 5.57325,-4.30832 4.31772,-1.94971 1.73017,-0.31742 -0.92363,-7.01566 -1.75337,0.14119 -4.67522,-0.76577 -6.49842,-2.71905 v -4.55476 l 6.49842,-2.71905 4.67522,-0.76577 1.75337,0.14119 0.92363,-7.01566 -1.73017,-0.31742 -4.31772,-1.94971 -5.57325,-4.30832 1.17886,-4.39956 6.98074,-0.94449 4.7141,0.47036 1.65709,0.59019 2.70794,-6.53755 -1.58906,-0.75441 -3.66597,-3.00079 -4.26828,-5.60398 2.27739,-3.94453 6.98732,0.89444 4.43174,1.67443 1.44787,0.99897 4.30772,-5.61393 -1.33967,-1.13998 -2.76439,-3.84736 -2.67242,-6.51774 3.2207,-3.2207 6.51774,2.67242 3.84736,2.76439 1.13998,1.33967 5.61393,-4.30772 -0.99897,-1.44787 -1.67443,-4.43174 -0.89444,-6.98732 3.94453,-2.27739 5.60398,4.26828 3.00079,3.66597 0.75441,1.58906 6.53755,-2.70794 -0.59019,-1.65709 -0.47036,-4.7141 0.94449,-6.98074 4.39956,-1.17886 4.30832,5.57325 1.94971,4.31772 0.31742,1.73017 7.01566,-0.92363 -0.14119,-1.75337 0.76577,-4.67522 2.71905,-6.49842 h 4.55476 l 2.71905,6.49842 0.76577,4.67522 -0.14119,1.75337 7.01566,0.92363 0.31742,-1.73017 1.94971,-4.31772 4.30832,-5.57325 4.39956,1.17886 0.94449,6.98074 -0.47036,4.7141 -0.59019,1.65709 6.53755,2.70794 0.75441,-1.58906 3.00079,-3.66597 5.60398,-4.26828 3.94453,2.27739 -0.89444,6.98732 -1.67443,4.43174 -0.99897,1.44787 5.61393,4.30772 1.13998,-1.33967 3.84736,-2.76439 6.51774,-2.67242 3.2207,3.2207 -2.67242,6.51774 -2.76439,3.84736 -1.33967,1.13998 4.30772,5.61393 1.44787,-0.99897 4.43174,-1.67443 6.98732,-0.89444 2.27739,3.94453 -4.26828,5.60398 -3.66597,3.00079 -1.58906,0.75441 2.70794,6.53755 1.65709,-0.59019 4.7141,-0.47036 6.98074,0.94449 1.17886,4.39956 -5.57325,4.30832 -4.31772,1.94971 -1.73017,0.31742 z"
         inkscape:connector-curvature="0" />
    </g>
    <path
       inkscape:connector-curvature="0"
       id="path1725"
       d="m 35.796275,110.34439 c -0.203764,0 -0.367419,0.16365 -0.367419,0.36742 v 6.14174 a 2.4691858,2.469186 0 0 0 -1.504818,2.27015 2.4691858,2.469186 0 0 0 1.504818,2.27273 v 6.52725 c 0,0.20376 0.163655,0.36793 0.367419,0.36793 h 1.211814 c 0.203763,0 0.367934,-0.16417 0.367934,-0.36793 v -6.53759 a 2.4691858,2.469186 0 0 0 1.486731,-2.26239 2.4691858,2.469186 0 0 0 -1.486731,-2.26395 v -6.14794 c 0,-0.20377 -0.164171,-0.36742 -0.367934,-0.36742 z"
       style="opacity:1;fill:none;fill-opacity:1;stroke:#000000;stroke-width:0.06162804;stroke-linejoin:round;stroke-miterlimit:4;stroke-dasharray:none;stroke-dashoffset:0;stroke-opacity:1" />
    <circle
       style="opacity:1;fill:none;fill-opacity:1;stroke:#000000;stroke-width:0.09192843;stroke-linejoin:round;stroke-miterlimit:4;stroke-dasharray:none;stroke-dashoffset:0;stroke-opacity:1"
       id="circle1727"
       cx="29.367743"
       cy="115.28829"
       r="0.90403587" />
    <circle
       r="0.90403587"
       cy="115.28829"
       cx="43.655254"
       id="circle1729"
       style="opacity:1;fill:none;fill-opacity:1;stroke:#000000;stroke-width:0.09192843;stroke-linejoin:round;stroke-miterlimit:4;stroke-dasharray:none;stroke-dashoffset:0;stroke-opacity:1" />
    <circle
       r="0.90403587"
       cy="123.755"
       cx="29.367743"
       id="circle1731"
       style="opacity:1;fill:none;fill-opacity:1;stroke:#000000;stroke-width:0.09192843;stroke-linejoin:round;stroke-miterlimit:4;stroke-dasharray:none;stroke-dashoffset:0;stroke-opacity:1" />
    <circle
       style="opacity:1;fill:none;fill-opacity:1;stroke:#000000;stroke-width:0.09192843;stroke-linejoin:round;stroke-miterlimit:4;stroke-dasharray:none;stroke-dashoffset:0;stroke-opacity:1"
       id="circle1733"
       cx="43.655254"
       cy="123.755"
       r="0.90403587" />
    <g
       id="g1737"
       inkscape:label="Gear24"
       transform="matrix(0.16895096,0,0,0.16899281,67.202971,88.725488)">
      <path
         id="path1735"
         style="fill:none;stroke:#000000;stroke-width:0.26458332"
         d="m 69.80222,-5.62101 1.75337,-0.14119 4.67522,0.76577 6.49842,2.71905 v 4.55476 l -6.49842,2.71905 -4.67522,0.76577 -1.75337,-0.14119 -0.92363,7.01566 1.73017,0.31742 4.31772,1.94971 5.57325,4.30832 -1.17886,4.39956 -6.98074,0.94449 -4.7141,-0.47036 -1.65709,-0.59019 -2.70794,6.53755 1.58906,0.75441 3.66597,3.00079 4.26828,5.60398 -2.27739,3.94453 -6.98732,-0.89444 -4.43174,-1.67443 -1.44787,-0.99897 -4.30772,5.61393 1.33967,1.13998 2.76439,3.84736 2.67242,6.51774 -3.2207,3.2207 -6.51774,-2.67242 -3.84736,-2.76439 -1.13998,-1.33967 -5.61393,4.30772 0.99897,1.44787 1.67443,4.43174 0.89444,6.98732 -3.94453,2.27739 -5.60398,-4.26828 -3.00079,-3.66597 -0.75441,-1.58906 -6.53755,2.70794 0.59019,1.65709 0.47036,4.7141 -0.94449,6.98074 -4.39956,1.17886 -4.30832,-5.57325 -1.94971,-4.31772 -0.31742,-1.73017 -7.01566,0.92363 0.14119,1.75337 -0.76577,4.67522 -2.71905,6.49842 h -4.55476 l -2.71905,-6.49842 -0.76577,-4.67522 0.14119,-1.75337 -7.01566,-0.92363 -0.31742,1.73017 -1.94971,4.31772 -4.30832,5.57325 -4.39956,-1.17886 -0.94449,-6.98074 0.47036,-4.7141 0.59019,-1.65709 -6.53755,-2.70794 -0.75441,1.58906 -3.00079,3.66597 -5.60398,4.26828 -3.94453,-2.27739 0.89444,-6.98732 1.67443,-4.43174 0.99897,-1.44787 -5.61393,-4.30772 -1.13998,1.33967 -3.84736,2.76439 -6.51774,2.67242 -3.2207,-3.2207 2.67242,-6.51774 2.76439,-3.84736 1.33967,-1.13998 -4.30772,-5.61393 -1.44787,0.99897 -4.43174,1.67443 -6.98732,0.89444 -2.27739,-3.94453 4.26828,-5.60398 3.66597,-3.00079 1.58906,-0.75441 -2.70794,-6.53755 -1.65709,0.59019 -4.7141,0.47036 -6.98074,-0.94449 -1.17886,-4.39956 5.57325,-4.30832 4.31772,-1.94971 1.73017,-0.31742 -0.92363,-7.01566 -1.75337,0.14119 -4.67522,-0.76577 -6.49842,-2.71905 v -4.55476 l 6.49842,-2.71905 4.67522,-0.76577 1.75337,0.14119 0.92363,-7.01566 -1.73017,-0.31742 -4.31772,-1.94971 -5.57325,-4.30832 1.17886,-4.39956 6.98074,-0.94449 4.7141,0.47036 1.65709,0.59019 2.70794,-6.53755 -1.58906,-0.75441 -3.66597,-3.00079 -4.26828,-5.60398 2.27739,-3.94453 6.98732,0.89444 4.43174,1.67443 1.44787,0.99897 4.30772,-5.61393 -1.33967,-1.13998 -2.76439,-3.84736 -2.67242,-6.51774 3.2207,-3.2207 6.51774,2.67242 3.84736,2.76439 1.13998,1.33967 5.61393,-4.30772 -0.99897,-1.44787 -1.67443,-4.43174 -0.89444,-6.98732 3.94453,-2.27739 5.60398,4.26828 3.00079,3.66597 0.75441,1.58906 6.53755,-2.70794 -0.59019,-1.65709 -0.47036,-4.7141 0.94449,-6.98074 4.39956,-1.17886 4.30832,5.57325 1.94971,4.31772 0.31742,1.73017 7.01566,-0.92363 -0.14119,-1.75337 0.76577,-4.67522 2.71905,-6.49842 h 4.55476 l 2.71905,6.49842 0.76577,4.67522 -0.14119,1.75337 7.01566,0.92363 0.31742,-1.73017 1.94971,-4.31772 4.30832,-5.57325 4.39956,1.17886 0.94449,6.98074 -0.47036,4.7141 -0.59019,1.65709 6.53755,2.70794 0.75441,-1.58906 3.00079,-3.66597 5.60398,-4.26828 3.94453,2.27739 -0.89444,6.98732 -1.67443,4.43174 -0.99897,1.44787 5.61393,4.30772 1.13998,-1.33967 3.84736,-2.76439 6.51774,-2.67242 3.2207,3.2207 -2.67242,6.51774 -2.76439,3.84736 -1.33967,1.13998 4.30772,5.61393 1.44787,-0.99897 4.43174,-1.67443 6.98732,-0.89444 2.27739,3.94453 -4.26828,5.60398 -3.66597,3.00079 -1.58906,0.75441 2.70794,6.53755 1.65709,-0.59019 4.7141,-0.47036 6.98074,0.94449 1.17886,4.39956 -5.57325,4.30832 -4.31772,1.94971 -1.73017,0.31742 z"
         inkscape:connector-curvature="0" />
    </g>
    <circle
       style="opacity:1;fill:none;fill-opacity:1;stroke:#000000;stroke-width:0.08225174;stroke-linejoin:round;stroke-miterlimit:4;stroke-dasharray:none;stroke-dashoffset:0;stroke-opacity:1"
       id="circle1739"
       cx="67.202972"
       cy="88.725471"
       r="0.80887413" />
    <circle
       cy="80.187805"
       cx="67.317986"
       id="circle1741"
       style="opacity:1;fill:none;fill-opacity:1;stroke:#000000;stroke-width:0.08225176;stroke-linejoin:round;stroke-miterlimit:4;stroke-dasharray:none;stroke-dashoffset:0;stroke-opacity:1"
       r="0.80887413" />
    <circle
       style="opacity:1;fill:none;fill-opacity:1;stroke:#000000;stroke-width:0.08225176;stroke-linejoin:round;stroke-miterlimit:4;stroke-dasharray:none;stroke-dashoffset:0;stroke-opacity:1"
       id="circle1743"
       cx="67.38678"
       cy="96.92672"
       r="0.80887413" />
    <circle
       cy="88.602272"
       cx="75.642448"
       id="circle1745"
       style="opacity:1;fill:none;fill-opacity:1;stroke:#000000;stroke-width:0.08225176;stroke-linejoin:round;stroke-miterlimit:4;stroke-dasharray:none;stroke-dashoffset:0;stroke-opacity:1"
       r="0.80887413" />
    <circle
       style="opacity:1;fill:none;fill-opacity:1;stroke:#000000;stroke-width:0.08225176;stroke-linejoin:round;stroke-miterlimit:4;stroke-dasharray:none;stroke-dashoffset:0;stroke-opacity:1"
       id="circle1747"
       cx="58.903507"
       cy="88.602272"
       r="0.80887413" />
    <circle
       r="0.80887413"
       cy="88.725471"
       cx="72.494644"
       id="circle1749"
       style="opacity:1;fill:none;fill-opacity:1;stroke:#000000;stroke-width:0.08225174;stroke-linejoin:round;stroke-miterlimit:4;stroke-dasharray:none;stroke-dashoffset:0;stroke-opacity:1" />
    <circle
       r="0.80887413"
       cy="88.725471"
       cx="61.911297"
       id="circle1751"
       style="opacity:1;fill:none;fill-opacity:1;stroke:#000000;stroke-width:0.08225174;stroke-linejoin:round;stroke-miterlimit:4;stroke-dasharray:none;stroke-dashoffset:0;stroke-opacity:1" />
    <circle
       r="0.80887413"
       cy="83.4338"
       cx="67.202972"
       id="circle1753"
       style="opacity:1;fill:none;fill-opacity:1;stroke:#000000;stroke-width:0.08225174;stroke-linejoin:round;stroke-miterlimit:4;stroke-dasharray:none;stroke-dashoffset:0;stroke-opacity:1" />
    <circle
       r="0.80887413"
       cy="94.017143"
       cx="67.202972"
       id="circle1755"
       style="opacity:1;fill:none;fill-opacity:1;stroke:#000000;stroke-width:0.08225174;stroke-linejoin:round;stroke-miterlimit:4;stroke-dasharray:none;stroke-dashoffset:0;stroke-opacity:1" />
    <circle
       style="opacity:1;fill:none;fill-opacity:1;stroke:#000000;stroke-width:0.08225174;stroke-linejoin:round;stroke-miterlimit:4;stroke-dasharray:none;stroke-dashoffset:0;stroke-opacity:1"
       id="circle1757"
       cx="71.43631"
       cy="84.492134"
       r="0.80887413" />
    <circle
       style="opacity:1;fill:none;fill-opacity:1;stroke:#000000;stroke-width:0.08225174;stroke-linejoin:round;stroke-miterlimit:4;stroke-dasharray:none;stroke-dashoffset:0;stroke-opacity:1"
       id="circle1759"
       cx="62.969631"
       cy="92.958809"
       r="0.80887413" />
    <g
       transform="matrix(0.16895096,0,0,0.16899281,98.423824,88.725488)"
       inkscape:label="Gear24"
       id="g1763">
      <path
         inkscape:connector-curvature="0"
         d="m 69.80222,-5.62101 1.75337,-0.14119 4.67522,0.76577 6.49842,2.71905 v 4.55476 l -6.49842,2.71905 -4.67522,0.76577 -1.75337,-0.14119 -0.92363,7.01566 1.73017,0.31742 4.31772,1.94971 5.57325,4.30832 -1.17886,4.39956 -6.98074,0.94449 -4.7141,-0.47036 -1.65709,-0.59019 -2.70794,6.53755 1.58906,0.75441 3.66597,3.00079 4.26828,5.60398 -2.27739,3.94453 -6.98732,-0.89444 -4.43174,-1.67443 -1.44787,-0.99897 -4.30772,5.61393 1.33967,1.13998 2.76439,3.84736 2.67242,6.51774 -3.2207,3.2207 -6.51774,-2.67242 -3.84736,-2.76439 -1.13998,-1.33967 -5.61393,4.30772 0.99897,1.44787 1.67443,4.43174 0.89444,6.98732 -3.94453,2.27739 -5.60398,-4.26828 -3.00079,-3.66597 -0.75441,-1.58906 -6.53755,2.70794 0.59019,1.65709 0.47036,4.7141 -0.94449,6.98074 -4.39956,1.17886 -4.30832,-5.57325 -1.94971,-4.31772 -0.31742,-1.73017 -7.01566,0.92363 0.14119,1.75337 -0.76577,4.67522 -2.71905,6.49842 h -4.55476 l -2.71905,-6.49842 -0.76577,-4.67522 0.14119,-1.75337 -7.01566,-0.92363 -0.31742,1.73017 -1.94971,4.31772 -4.30832,5.57325 -4.39956,-1.17886 -0.94449,-6.98074 0.47036,-4.7141 0.59019,-1.65709 -6.53755,-2.70794 -0.75441,1.58906 -3.00079,3.66597 -5.60398,4.26828 -3.94453,-2.27739 0.89444,-6.98732 1.67443,-4.43174 0.99897,-1.44787 -5.61393,-4.30772 -1.13998,1.33967 -3.84736,2.76439 -6.51774,2.67242 -3.2207,-3.2207 2.67242,-6.51774 2.76439,-3.84736 1.33967,-1.13998 -4.30772,-5.61393 -1.44787,0.99897 -4.43174,1.67443 -6.98732,0.89444 -2.27739,-3.94453 4.26828,-5.60398 3.66597,-3.00079 1.58906,-0.75441 -2.70794,-6.53755 -1.65709,0.59019 -4.7141,0.47036 -6.98074,-0.94449 -1.17886,-4.39956 5.57325,-4.30832 4.31772,-1.94971 1.73017,-0.31742 -0.92363,-7.01566 -1.75337,0.14119 -4.67522,-0.76577 -6.49842,-2.71905 v -4.55476 l 6.49842,-2.71905 4.67522,-0.76577 1.75337,0.14119 0.92363,-7.01566 -1.73017,-0.31742 -4.31772,-1.94971 -5.57325,-4.30832 1.17886,-4.39956 6.98074,-0.94449 4.7141,0.47036 1.65709,0.59019 2.70794,-6.53755 -1.58906,-0.75441 -3.66597,-3.00079 -4.26828,-5.60398 2.27739,-3.94453 6.98732,0.89444 4.43174,1.67443 1.44787,0.99897 4.30772,-5.61393 -1.33967,-1.13998 -2.76439,-3.84736 -2.67242,-6.51774 3.2207,-3.2207 6.51774,2.67242 3.84736,2.76439 1.13998,1.33967 5.61393,-4.30772 -0.99897,-1.44787 -1.67443,-4.43174 -0.89444,-6.98732 3.94453,-2.27739 5.60398,4.26828 3.00079,3.66597 0.75441,1.58906 6.53755,-2.70794 -0.59019,-1.65709 -0.47036,-4.7141 0.94449,-6.98074 4.39956,-1.17886 4.30832,5.57325 1.94971,4.31772 0.31742,1.73017 7.01566,-0.92363 -0.14119,-1.75337 0.76577,-4.67522 2.71905,-6.49842 h 4.55476 l 2.71905,6.49842 0.76577,4.67522 -0.14119,1.75337 7.01566,0.92363 0.31742,-1.73017 1.94971,-4.31772 4.30832,-5.57325 4.39956,1.17886 0.94449,6.98074 -0.47036,4.7141 -0.59019,1.65709 6.53755,2.70794 0.75441,-1.58906 3.00079,-3.66597 5.60398,-4.26828 3.94453,2.27739 -0.89444,6.98732 -1.67443,4.43174 -0.99897,1.44787 5.61393,4.30772 1.13998,-1.33967 3.84736,-2.76439 6.51774,-2.67242 3.2207,3.2207 -2.67242,6.51774 -2.76439,3.84736 -1.33967,1.13998 4.30772,5.61393 1.44787,-0.99897 4.43174,-1.67443 6.98732,-0.89444 2.27739,3.94453 -4.26828,5.60398 -3.66597,3.00079 -1.58906,0.75441 2.70794,6.53755 1.65709,-0.59019 4.7141,-0.47036 6.98074,0.94449 1.17886,4.39956 -5.57325,4.30832 -4.31772,1.94971 -1.73017,0.31742 z"
         style="fill:none;stroke:#000000;stroke-width:0.26458332"
         id="path1761" />
    </g>
    <circle
       r="0.80887413"
       cy="88.725471"
       cx="98.423836"
       id="circle1765"
       style="opacity:1;fill:none;fill-opacity:1;stroke:#000000;stroke-width:0.08225174;stroke-linejoin:round;stroke-miterlimit:4;stroke-dasharray:none;stroke-dashoffset:0;stroke-opacity:1" />
    <circle
       r="0.80887413"
       style="opacity:1;fill:none;fill-opacity:1;stroke:#000000;stroke-width:0.08225176;stroke-linejoin:round;stroke-miterlimit:4;stroke-dasharray:none;stroke-dashoffset:0;stroke-opacity:1"
       id="circle1767"
       cx="98.538849"
       cy="80.187805" />
    <circle
       r="0.80887413"
       cy="96.92672"
       cx="98.607643"
       id="circle1769"
       style="opacity:1;fill:none;fill-opacity:1;stroke:#000000;stroke-width:0.08225176;stroke-linejoin:round;stroke-miterlimit:4;stroke-dasharray:none;stroke-dashoffset:0;stroke-opacity:1" />
    <circle
       r="0.80887413"
       style="opacity:1;fill:none;fill-opacity:1;stroke:#000000;stroke-width:0.08225176;stroke-linejoin:round;stroke-miterlimit:4;stroke-dasharray:none;stroke-dashoffset:0;stroke-opacity:1"
       id="circle1771"
       cx="106.8633"
       cy="88.602272" />
    <circle
       r="0.80887413"
       cy="88.602272"
       cx="90.124374"
       id="circle1773"
       style="opacity:1;fill:none;fill-opacity:1;stroke:#000000;stroke-width:0.08225176;stroke-linejoin:round;stroke-miterlimit:4;stroke-dasharray:none;stroke-dashoffset:0;stroke-opacity:1" />
    <circle
       style="opacity:1;fill:none;fill-opacity:1;stroke:#000000;stroke-width:0.08225174;stroke-linejoin:round;stroke-miterlimit:4;stroke-dasharray:none;stroke-dashoffset:0;stroke-opacity:1"
       id="circle1775"
       cx="103.71551"
       cy="88.725471"
       r="0.80887413" />
    <circle
       style="opacity:1;fill:none;fill-opacity:1;stroke:#000000;stroke-width:0.08225174;stroke-linejoin:round;stroke-miterlimit:4;stroke-dasharray:none;stroke-dashoffset:0;stroke-opacity:1"
       id="circle1777"
       cx="93.132164"
       cy="88.725471"
       r="0.80887413" />
    <circle
       style="opacity:1;fill:none;fill-opacity:1;stroke:#000000;stroke-width:0.08225174;stroke-linejoin:round;stroke-miterlimit:4;stroke-dasharray:none;stroke-dashoffset:0;stroke-opacity:1"
       id="circle1779"
       cx="98.423836"
       cy="83.4338"
       r="0.80887413" />
    <circle
       style="opacity:1;fill:none;fill-opacity:1;stroke:#000000;stroke-width:0.08225174;stroke-linejoin:round;stroke-miterlimit:4;stroke-dasharray:none;stroke-dashoffset:0;stroke-opacity:1"
       id="circle1781"
       cx="98.423836"
       cy="94.017143"
       r="0.80887413" />
    <circle
       r="0.80887413"
       cy="84.492134"
       cx="102.65718"
       id="circle1783"
       style="opacity:1;fill:none;fill-opacity:1;stroke:#000000;stroke-width:0.08225174;stroke-linejoin:round;stroke-miterlimit:4;stroke-dasharray:none;stroke-dashoffset:0;stroke-opacity:1" />
    <circle
       r="0.80887413"
       cy="92.958809"
       cx="94.190498"
       id="circle1785"
       style="opacity:1;fill:none;fill-opacity:1;stroke:#000000;stroke-width:0.08225174;stroke-linejoin:round;stroke-miterlimit:4;stroke-dasharray:none;stroke-dashoffset:0;stroke-opacity:1" />
    <g
       transform="matrix(0.16895096,0,0,0.16899281,67.202971,119.41713)"
       inkscape:label="Gear24"
       id="g1789">
      <path
         inkscape:connector-curvature="0"
         d="m 69.80222,-5.62101 1.75337,-0.14119 4.67522,0.76577 6.49842,2.71905 v 4.55476 l -6.49842,2.71905 -4.67522,0.76577 -1.75337,-0.14119 -0.92363,7.01566 1.73017,0.31742 4.31772,1.94971 5.57325,4.30832 -1.17886,4.39956 -6.98074,0.94449 -4.7141,-0.47036 -1.65709,-0.59019 -2.70794,6.53755 1.58906,0.75441 3.66597,3.00079 4.26828,5.60398 -2.27739,3.94453 -6.98732,-0.89444 -4.43174,-1.67443 -1.44787,-0.99897 -4.30772,5.61393 1.33967,1.13998 2.76439,3.84736 2.67242,6.51774 -3.2207,3.2207 -6.51774,-2.67242 -3.84736,-2.76439 -1.13998,-1.33967 -5.61393,4.30772 0.99897,1.44787 1.67443,4.43174 0.89444,6.98732 -3.94453,2.27739 -5.60398,-4.26828 -3.00079,-3.66597 -0.75441,-1.58906 -6.53755,2.70794 0.59019,1.65709 0.47036,4.7141 -0.94449,6.98074 -4.39956,1.17886 -4.30832,-5.57325 -1.94971,-4.31772 -0.31742,-1.73017 -7.01566,0.92363 0.14119,1.75337 -0.76577,4.67522 -2.71905,6.49842 h -4.55476 l -2.71905,-6.49842 -0.76577,-4.67522 0.14119,-1.75337 -7.01566,-0.92363 -0.31742,1.73017 -1.94971,4.31772 -4.30832,5.57325 -4.39956,-1.17886 -0.94449,-6.98074 0.47036,-4.7141 0.59019,-1.65709 -6.53755,-2.70794 -0.75441,1.58906 -3.00079,3.66597 -5.60398,4.26828 -3.94453,-2.27739 0.89444,-6.98732 1.67443,-4.43174 0.99897,-1.44787 -5.61393,-4.30772 -1.13998,1.33967 -3.84736,2.76439 -6.51774,2.67242 -3.2207,-3.2207 2.67242,-6.51774 2.76439,-3.84736 1.33967,-1.13998 -4.30772,-5.61393 -1.44787,0.99897 -4.43174,1.67443 -6.98732,0.89444 -2.27739,-3.94453 4.26828,-5.60398 3.66597,-3.00079 1.58906,-0.75441 -2.70794,-6.53755 -1.65709,0.59019 -4.7141,0.47036 -6.98074,-0.94449 -1.17886,-4.39956 5.57325,-4.30832 4.31772,-1.94971 1.73017,-0.31742 -0.92363,-7.01566 -1.75337,0.14119 -4.67522,-0.76577 -6.49842,-2.71905 v -4.55476 l 6.49842,-2.71905 4.67522,-0.76577 1.75337,0.14119 0.92363,-7.01566 -1.73017,-0.31742 -4.31772,-1.94971 -5.57325,-4.30832 1.17886,-4.39956 6.98074,-0.94449 4.7141,0.47036 1.65709,0.59019 2.70794,-6.53755 -1.58906,-0.75441 -3.66597,-3.00079 -4.26828,-5.60398 2.27739,-3.94453 6.98732,0.89444 4.43174,1.67443 1.44787,0.99897 4.30772,-5.61393 -1.33967,-1.13998 -2.76439,-3.84736 -2.67242,-6.51774 3.2207,-3.2207 6.51774,2.67242 3.84736,2.76439 1.13998,1.33967 5.61393,-4.30772 -0.99897,-1.44787 -1.67443,-4.43174 -0.89444,-6.98732 3.94453,-2.27739 5.60398,4.26828 3.00079,3.66597 0.75441,1.58906 6.53755,-2.70794 -0.59019,-1.65709 -0.47036,-4.7141 0.94449,-6.98074 4.39956,-1.17886 4.30832,5.57325 1.94971,4.31772 0.31742,1.73017 7.01566,-0.92363 -0.14119,-1.75337 0.76577,-4.67522 2.71905,-6.49842 h 4.55476 l 2.71905,6.49842 0.76577,4.67522 -0.14119,1.75337 7.01566,0.92363 0.31742,-1.73017 1.94971,-4.31772 4.30832,-5.57325 4.39956,1.17886 0.94449,6.98074 -0.47036,4.7141 -0.59019,1.65709 6.53755,2.70794 0.75441,-1.58906 3.00079,-3.66597 5.60398,-4.26828 3.94453,2.27739 -0.89444,6.98732 -1.67443,4.43174 -0.99897,1.44787 5.61393,4.30772 1.13998,-1.33967 3.84736,-2.76439 6.51774,-2.67242 3.2207,3.2207 -2.67242,6.51774 -2.76439,3.84736 -1.33967,1.13998 4.30772,5.61393 1.44787,-0.99897 4.43174,-1.67443 6.98732,-0.89444 2.27739,3.94453 -4.26828,5.60398 -3.66597,3.00079 -1.58906,0.75441 2.70794,6.53755 1.65709,-0.59019 4.7141,-0.47036 6.98074,0.94449 1.17886,4.39956 -5.57325,4.30832 -4.31772,1.94971 -1.73017,0.31742 z"
         style="fill:none;stroke:#000000;stroke-width:0.26458332"
         id="path1787" />
    </g>
    <circle
       r="0.80887413"
       cy="119.41718"
       cx="67.202972"
       id="circle1791"
       style="opacity:1;fill:none;fill-opacity:1;stroke:#000000;stroke-width:0.08225174;stroke-linejoin:round;stroke-miterlimit:4;stroke-dasharray:none;stroke-dashoffset:0;stroke-opacity:1" />
    <circle
       r="0.80887413"
       style="opacity:1;fill:none;fill-opacity:1;stroke:#000000;stroke-width:0.08225176;stroke-linejoin:round;stroke-miterlimit:4;stroke-dasharray:none;stroke-dashoffset:0;stroke-opacity:1"
       id="circle1793"
       cx="67.317986"
       cy="110.87952" />
    <circle
       r="0.80887413"
       cy="127.61852"
       cx="67.38678"
       id="circle1795"
       style="opacity:1;fill:none;fill-opacity:1;stroke:#000000;stroke-width:0.08225176;stroke-linejoin:round;stroke-miterlimit:4;stroke-dasharray:none;stroke-dashoffset:0;stroke-opacity:1" />
    <circle
       r="0.80887413"
       style="opacity:1;fill:none;fill-opacity:1;stroke:#000000;stroke-width:0.08225176;stroke-linejoin:round;stroke-miterlimit:4;stroke-dasharray:none;stroke-dashoffset:0;stroke-opacity:1"
       id="circle1797"
       cx="75.642448"
       cy="119.29398" />
    <circle
       r="0.80887413"
       cy="119.29398"
       cx="58.903507"
       id="circle1799"
       style="opacity:1;fill:none;fill-opacity:1;stroke:#000000;stroke-width:0.08225176;stroke-linejoin:round;stroke-miterlimit:4;stroke-dasharray:none;stroke-dashoffset:0;stroke-opacity:1" />
    <circle
       style="opacity:1;fill:none;fill-opacity:1;stroke:#000000;stroke-width:0.08225174;stroke-linejoin:round;stroke-miterlimit:4;stroke-dasharray:none;stroke-dashoffset:0;stroke-opacity:1"
       id="circle1801"
       cx="72.494644"
       cy="119.41718"
       r="0.80887413" />
    <circle
       style="opacity:1;fill:none;fill-opacity:1;stroke:#000000;stroke-width:0.08225174;stroke-linejoin:round;stroke-miterlimit:4;stroke-dasharray:none;stroke-dashoffset:0;stroke-opacity:1"
       id="circle1803"
       cx="61.911297"
       cy="119.41718"
       r="0.80887413" />
    <circle
       style="opacity:1;fill:none;fill-opacity:1;stroke:#000000;stroke-width:0.08225174;stroke-linejoin:round;stroke-miterlimit:4;stroke-dasharray:none;stroke-dashoffset:0;stroke-opacity:1"
       id="circle1805"
       cx="67.202972"
       cy="114.12553"
       r="0.80887413" />
    <circle
       style="opacity:1;fill:none;fill-opacity:1;stroke:#000000;stroke-width:0.08225174;stroke-linejoin:round;stroke-miterlimit:4;stroke-dasharray:none;stroke-dashoffset:0;stroke-opacity:1"
       id="circle1807"
       cx="67.202972"
       cy="124.70887"
       r="0.80887413" />
    <circle
       r="0.80887413"
       cy="115.18385"
       cx="71.43631"
       id="circle1809"
       style="opacity:1;fill:none;fill-opacity:1;stroke:#000000;stroke-width:0.08225174;stroke-linejoin:round;stroke-miterlimit:4;stroke-dasharray:none;stroke-dashoffset:0;stroke-opacity:1" />
    <circle
       r="0.80887413"
       cy="123.65054"
       cx="62.969631"
       id="circle1811"
       style="opacity:1;fill:none;fill-opacity:1;stroke:#000000;stroke-width:0.08225174;stroke-linejoin:round;stroke-miterlimit:4;stroke-dasharray:none;stroke-dashoffset:0;stroke-opacity:1" />
    <g
       id="g1815"
       inkscape:label="Gear24"
       transform="matrix(0.16895096,0,0,0.16899281,98.423824,119.41713)">
      <path
         id="path1813"
         style="fill:none;stroke:#000000;stroke-width:0.26458332"
         d="m 69.80222,-5.62101 1.75337,-0.14119 4.67522,0.76577 6.49842,2.71905 v 4.55476 l -6.49842,2.71905 -4.67522,0.76577 -1.75337,-0.14119 -0.92363,7.01566 1.73017,0.31742 4.31772,1.94971 5.57325,4.30832 -1.17886,4.39956 -6.98074,0.94449 -4.7141,-0.47036 -1.65709,-0.59019 -2.70794,6.53755 1.58906,0.75441 3.66597,3.00079 4.26828,5.60398 -2.27739,3.94453 -6.98732,-0.89444 -4.43174,-1.67443 -1.44787,-0.99897 -4.30772,5.61393 1.33967,1.13998 2.76439,3.84736 2.67242,6.51774 -3.2207,3.2207 -6.51774,-2.67242 -3.84736,-2.76439 -1.13998,-1.33967 -5.61393,4.30772 0.99897,1.44787 1.67443,4.43174 0.89444,6.98732 -3.94453,2.27739 -5.60398,-4.26828 -3.00079,-3.66597 -0.75441,-1.58906 -6.53755,2.70794 0.59019,1.65709 0.47036,4.7141 -0.94449,6.98074 -4.39956,1.17886 -4.30832,-5.57325 -1.94971,-4.31772 -0.31742,-1.73017 -7.01566,0.92363 0.14119,1.75337 -0.76577,4.67522 -2.71905,6.49842 h -4.55476 l -2.71905,-6.49842 -0.76577,-4.67522 0.14119,-1.75337 -7.01566,-0.92363 -0.31742,1.73017 -1.94971,4.31772 -4.30832,5.57325 -4.39956,-1.17886 -0.94449,-6.98074 0.47036,-4.7141 0.59019,-1.65709 -6.53755,-2.70794 -0.75441,1.58906 -3.00079,3.66597 -5.60398,4.26828 -3.94453,-2.27739 0.89444,-6.98732 1.67443,-4.43174 0.99897,-1.44787 -5.61393,-4.30772 -1.13998,1.33967 -3.84736,2.76439 -6.51774,2.67242 -3.2207,-3.2207 2.67242,-6.51774 2.76439,-3.84736 1.33967,-1.13998 -4.30772,-5.61393 -1.44787,0.99897 -4.43174,1.67443 -6.98732,0.89444 -2.27739,-3.94453 4.26828,-5.60398 3.66597,-3.00079 1.58906,-0.75441 -2.70794,-6.53755 -1.65709,0.59019 -4.7141,0.47036 -6.98074,-0.94449 -1.17886,-4.39956 5.57325,-4.30832 4.31772,-1.94971 1.73017,-0.31742 -0.92363,-7.01566 -1.75337,0.14119 -4.67522,-0.76577 -6.49842,-2.71905 v -4.55476 l 6.49842,-2.71905 4.67522,-0.76577 1.75337,0.14119 0.92363,-7.01566 -1.73017,-0.31742 -4.31772,-1.94971 -5.57325,-4.30832 1.17886,-4.39956 6.98074,-0.94449 4.7141,0.47036 1.65709,0.59019 2.70794,-6.53755 -1.58906,-0.75441 -3.66597,-3.00079 -4.26828,-5.60398 2.27739,-3.94453 6.98732,0.89444 4.43174,1.67443 1.44787,0.99897 4.30772,-5.61393 -1.33967,-1.13998 -2.76439,-3.84736 -2.67242,-6.51774 3.2207,-3.2207 6.51774,2.67242 3.84736,2.76439 1.13998,1.33967 5.61393,-4.30772 -0.99897,-1.44787 -1.67443,-4.43174 -0.89444,-6.98732 3.94453,-2.27739 5.60398,4.26828 3.00079,3.66597 0.75441,1.58906 6.53755,-2.70794 -0.59019,-1.65709 -0.47036,-4.7141 0.94449,-6.98074 4.39956,-1.17886 4.30832,5.57325 1.94971,4.31772 0.31742,1.73017 7.01566,-0.92363 -0.14119,-1.75337 0.76577,-4.67522 2.71905,-6.49842 h 4.55476 l 2.71905,6.49842 0.76577,4.67522 -0.14119,1.75337 7.01566,0.92363 0.31742,-1.73017 1.94971,-4.31772 4.30832,-5.57325 4.39956,1.17886 0.94449,6.98074 -0.47036,4.7141 -0.59019,1.65709 6.53755,2.70794 0.75441,-1.58906 3.00079,-3.66597 5.60398,-4.26828 3.94453,2.27739 -0.89444,6.98732 -1.67443,4.43174 -0.99897,1.44787 5.61393,4.30772 1.13998,-1.33967 3.84736,-2.76439 6.51774,-2.67242 3.2207,3.2207 -2.67242,6.51774 -2.76439,3.84736 -1.33967,1.13998 4.30772,5.61393 1.44787,-0.99897 4.43174,-1.67443 6.98732,-0.89444 2.27739,3.94453 -4.26828,5.60398 -3.66597,3.00079 -1.58906,0.75441 2.70794,6.53755 1.65709,-0.59019 4.7141,-0.47036 6.98074,0.94449 1.17886,4.39956 -5.57325,4.30832 -4.31772,1.94971 -1.73017,0.31742 z"
         inkscape:connector-curvature="0" />
    </g>
    <circle
       style="opacity:1;fill:none;fill-opacity:1;stroke:#000000;stroke-width:0.08225174;stroke-linejoin:round;stroke-miterlimit:4;stroke-dasharray:none;stroke-dashoffset:0;stroke-opacity:1"
       id="circle1817"
       cx="98.423836"
       cy="119.41718"
       r="0.80887413" />
    <circle
       cy="110.87952"
       cx="98.538849"
       id="circle1819"
       style="opacity:1;fill:none;fill-opacity:1;stroke:#000000;stroke-width:0.08225176;stroke-linejoin:round;stroke-miterlimit:4;stroke-dasharray:none;stroke-dashoffset:0;stroke-opacity:1"
       r="0.80887413" />
    <circle
       style="opacity:1;fill:none;fill-opacity:1;stroke:#000000;stroke-width:0.08225176;stroke-linejoin:round;stroke-miterlimit:4;stroke-dasharray:none;stroke-dashoffset:0;stroke-opacity:1"
       id="circle1821"
       cx="98.607643"
       cy="127.61852"
       r="0.80887413" />
    <circle
       cy="119.29398"
       cx="106.8633"
       id="circle1823"
       style="opacity:1;fill:none;fill-opacity:1;stroke:#000000;stroke-width:0.08225176;stroke-linejoin:round;stroke-miterlimit:4;stroke-dasharray:none;stroke-dashoffset:0;stroke-opacity:1"
       r="0.80887413" />
    <circle
       style="opacity:1;fill:none;fill-opacity:1;stroke:#000000;stroke-width:0.08225176;stroke-linejoin:round;stroke-miterlimit:4;stroke-dasharray:none;stroke-dashoffset:0;stroke-opacity:1"
       id="circle1825"
       cx="90.124374"
       cy="119.29398"
       r="0.80887413" />
    <circle
       r="0.80887413"
       cy="119.41718"
       cx="103.71551"
       id="circle1827"
       style="opacity:1;fill:none;fill-opacity:1;stroke:#000000;stroke-width:0.08225174;stroke-linejoin:round;stroke-miterlimit:4;stroke-dasharray:none;stroke-dashoffset:0;stroke-opacity:1" />
    <circle
       r="0.80887413"
       cy="119.41718"
       cx="93.132164"
       id="circle1829"
       style="opacity:1;fill:none;fill-opacity:1;stroke:#000000;stroke-width:0.08225174;stroke-linejoin:round;stroke-miterlimit:4;stroke-dasharray:none;stroke-dashoffset:0;stroke-opacity:1" />
    <circle
       r="0.80887413"
       cy="114.12553"
       cx="98.423836"
       id="circle1831"
       style="opacity:1;fill:none;fill-opacity:1;stroke:#000000;stroke-width:0.08225174;stroke-linejoin:round;stroke-miterlimit:4;stroke-dasharray:none;stroke-dashoffset:0;stroke-opacity:1" />
    <circle
       r="0.80887413"
       cy="124.70887"
       cx="98.423836"
       id="circle1833"
       style="opacity:1;fill:none;fill-opacity:1;stroke:#000000;stroke-width:0.08225174;stroke-linejoin:round;stroke-miterlimit:4;stroke-dasharray:none;stroke-dashoffset:0;stroke-opacity:1" />
    <circle
       style="opacity:1;fill:none;fill-opacity:1;stroke:#000000;stroke-width:0.08225174;stroke-linejoin:round;stroke-miterlimit:4;stroke-dasharray:none;stroke-dashoffset:0;stroke-opacity:1"
       id="circle1835"
       cx="102.65718"
       cy="115.18385"
       r="0.80887413" />
    <circle
       style="opacity:1;fill:none;fill-opacity:1;stroke:#000000;stroke-width:0.08225174;stroke-linejoin:round;stroke-miterlimit:4;stroke-dasharray:none;stroke-dashoffset:0;stroke-opacity:1"
       id="circle1837"
       cx="94.190498"
       cy="123.65054"
       r="0.80887413" />
  </g>
</svg>
